<svg width="42" height="42" viewBox="0 0 42 42" fill="none" xmlns="http://www.w3.org/2000/svg">
<path fill-rule="evenodd" clip-rule="evenodd" d="M0 21C0 32.592 9.408 42 21 42C32.592 42 42 32.592 42 21C42 9.408 32.592 0 21 0C9.408 0 0 9.408 0 21ZM27.3 12.6C27.3 16.086 24.486 18.9 21 18.9C17.514 18.9 14.7 16.086 14.7 12.6C14.7 9.11396 17.514 6.29996 21 6.29996C24.486 6.29996 27.3 9.11396 27.3 12.6ZM8.39985 29.358C8.46285 25.179 16.7999 22.89 20.9999 22.89C25.1789 22.89 33.5369 25.179 33.5999 29.358C30.8909 33.432 26.2499 36.12 20.9999 36.12C15.7499 36.12 11.1089 33.432 8.39985 29.358Z" fill="#1A1A1A"/>
</svg>
