<svg width="18" height="18" viewBox="0 0 18 18" fill="none" xmlns="http://www.w3.org/2000/svg">
<path fill-rule="evenodd" clip-rule="evenodd" d="M2.82192 2.82192C3.06806 2.57578 3.4019 2.4375 3.75 2.4375H11.25C11.5981 2.4375 11.9319 2.57578 12.1781 2.82192C12.4242 3.06806 12.5625 3.4019 12.5625 3.75V3.9375H14.25C14.5981 3.9375 14.9319 4.07578 15.1781 4.32192C15.4242 4.56806 15.5625 4.9019 15.5625 5.25V13.5C15.5625 14.047 15.3452 14.5716 14.9584 14.9584C14.5716 15.3452 14.047 15.5625 13.5 15.5625H5.25C4.50408 15.5625 3.78871 15.2662 3.26126 14.7387C2.73382 14.2113 2.4375 13.4959 2.4375 12.75V3.75C2.4375 3.4019 2.57578 3.06806 2.82192 2.82192ZM11.6629 14.4375H5.25C4.80245 14.4375 4.37322 14.2597 4.05676 13.9432C3.74029 13.6268 3.5625 13.1976 3.5625 12.75V3.75C3.5625 3.70027 3.58225 3.65258 3.61742 3.61742C3.65258 3.58225 3.70027 3.5625 3.75 3.5625H11.25C11.2997 3.5625 11.3474 3.58225 11.3826 3.61742C11.4177 3.65258 11.4375 3.70027 11.4375 3.75V13.5C11.4375 13.829 11.5161 14.1498 11.6629 14.4375ZM12.5625 5.0625V13.5C12.5625 13.7486 12.6613 13.9871 12.8371 14.1629C13.0129 14.3387 13.2514 14.4375 13.5 14.4375C13.7486 14.4375 13.9871 14.3387 14.1629 14.1629C14.3387 13.9871 14.4375 13.7486 14.4375 13.5V5.25C14.4375 5.20027 14.4177 5.15258 14.3826 5.11742C14.3474 5.08225 14.2997 5.0625 14.25 5.0625H12.5625Z" fill="#E2AD0A"/>
<path fill-rule="evenodd" clip-rule="evenodd" d="M5.4375 6C5.4375 5.68934 5.68934 5.4375 6 5.4375H9C9.31066 5.4375 9.5625 5.68934 9.5625 6C9.5625 6.31066 9.31066 6.5625 9 6.5625H6C5.68934 6.5625 5.4375 6.31066 5.4375 6Z" fill="#E2AD0A"/>
<path fill-rule="evenodd" clip-rule="evenodd" d="M5.4375 9C5.4375 8.68934 5.68934 8.4375 6 8.4375H9C9.31066 8.4375 9.5625 8.68934 9.5625 9C9.5625 9.31066 9.31066 9.5625 9 9.5625H6C5.68934 9.5625 5.4375 9.31066 5.4375 9Z" fill="#E2AD0A"/>
<path fill-rule="evenodd" clip-rule="evenodd" d="M5.4375 12C5.4375 11.6893 5.68934 11.4375 6 11.4375H9C9.31066 11.4375 9.5625 11.6893 9.5625 12C9.5625 12.3107 9.31066 12.5625 9 12.5625H6C5.68934 12.5625 5.4375 12.3107 5.4375 12Z" fill="#E2AD0A"/>
</svg>
