<svg width="48" height="48" viewBox="0 0 48 48" fill="none" xmlns="http://www.w3.org/2000/svg">
<path fill-rule="evenodd" clip-rule="evenodd" d="M28 4.5C28.8284 4.5 29.5 5.17157 29.5 6V14C29.5 14.1326 29.5527 14.2598 29.6464 14.3536C29.7402 14.4473 29.8674 14.5 30 14.5H38C38.8284 14.5 39.5 15.1716 39.5 16C39.5 16.8284 38.8284 17.5 38 17.5H30C29.0717 17.5 28.1815 17.1312 27.5251 16.4749C26.8688 15.8185 26.5 14.9283 26.5 14V6C26.5 5.17157 27.1716 4.5 28 4.5Z" fill="#1A1A1A"/>
<path fill-rule="evenodd" clip-rule="evenodd" d="M14 7.5C13.337 7.5 12.7011 7.76339 12.2322 8.23223C11.7634 8.70107 11.5 9.33696 11.5 10V38C11.5 38.663 11.7634 39.2989 12.2322 39.7678C12.7011 40.2366 13.337 40.5 14 40.5H34C34.663 40.5 35.2989 40.2366 35.7678 39.7678C36.2366 39.2989 36.5 38.663 36.5 38V16.6213L27.3787 7.5H14ZM10.1109 6.11091C11.1424 5.07946 12.5413 4.5 14 4.5H28C28.3978 4.5 28.7794 4.65804 29.0607 4.93934L39.0607 14.9393C39.342 15.2206 39.5 15.6022 39.5 16V38C39.5 39.4587 38.9205 40.8576 37.8891 41.8891C36.8576 42.9205 35.4587 43.5 34 43.5H14C12.5413 43.5 11.1424 42.9205 10.1109 41.8891C9.07946 40.8576 8.5 39.4587 8.5 38V10C8.5 8.54131 9.07946 7.14236 10.1109 6.11091Z" fill="#1A1A1A"/>
<path fill-rule="evenodd" clip-rule="evenodd" d="M31.0607 24.9393C31.6464 25.5251 31.6464 26.4749 31.0607 27.0607L23.0607 35.0607C22.4749 35.6465 21.5251 35.6465 20.9393 35.0607L16.9393 31.0607C16.3536 30.4749 16.3536 29.5251 16.9393 28.9393C17.5251 28.3536 18.4749 28.3536 19.0607 28.9393L22 31.8787L28.9393 24.9393C29.5251 24.3536 30.4749 24.3536 31.0607 24.9393Z" fill="#1A1A1A"/>
</svg>
