<svg width="18" height="18" viewBox="0 0 18 18" fill="none" xmlns="http://www.w3.org/2000/svg">
<path fill-rule="evenodd" clip-rule="evenodd" d="M9.70961 3.37036C9.52916 2.62655 8.47084 2.62655 8.29039 3.37036L8.29032 3.37066C7.99335 4.59189 6.59764 5.17081 5.52252 4.51714L5.52224 4.51696C4.86783 4.11855 4.11954 4.86753 4.51752 5.52117M9.70961 3.37036C9.77841 3.65423 9.91326 3.91784 10.1032 4.13975C10.2931 4.3617 10.5328 4.53566 10.8027 4.64748C11.0726 4.75929 11.3651 4.8058 11.6563 4.78322C11.9475 4.76064 12.2293 4.66964 12.4786 4.51763C13.1323 4.1194 13.8815 4.86777 13.483 5.52224C13.3312 5.77154 13.2403 6.05314 13.2178 6.34417C13.1953 6.63523 13.2418 6.92751 13.3534 7.19723C13.4651 7.46696 13.6389 7.70652 13.8606 7.89646C14.0823 8.0864 14.3457 8.22134 14.6293 8.29032L14.6296 8.29039C15.3735 8.47084 15.3735 9.52916 14.6296 9.70961C14.3458 9.77841 14.0822 9.91326 13.8603 10.1032C13.6383 10.2931 13.4643 10.5328 13.3525 10.8027C13.2407 11.0726 13.1942 11.3651 13.2168 11.6563C13.2394 11.9475 13.3304 12.2293 13.4824 12.4786C13.8806 13.1323 13.1322 13.8815 12.4778 13.483C12.2285 13.3312 11.9469 13.2403 11.6558 13.2178C11.3648 13.1953 11.0725 13.2418 10.8028 13.3534C10.533 13.4651 10.2935 13.6389 10.1035 13.8606C9.91361 14.0823 9.77866 14.3457 9.70968 14.6293L9.70961 14.6296C9.52916 15.3735 8.47084 15.3735 8.29039 14.6296C8.22159 14.3458 8.08674 14.0822 7.89683 13.8603C7.70687 13.6383 7.4672 13.4643 7.19731 13.3525C6.92742 13.2407 6.63494 13.1942 6.34368 13.2168C6.05249 13.2394 5.77074 13.3304 5.52135 13.4824C4.8677 13.8806 4.11859 13.1323 4.5169 12.4779C4.66876 12.2285 4.75966 11.9469 4.78219 11.6558C4.80472 11.3648 4.75825 11.0725 4.64656 10.8028C4.53488 10.533 4.36112 10.2935 4.13942 10.1035C3.91772 9.91361 3.65433 9.77866 3.37067 9.70968L3.37036 9.70961C2.62655 9.52916 2.62655 8.47084 3.37036 8.29039C3.65423 8.22159 3.91784 8.08674 4.13975 7.89683C4.3617 7.70687 4.53566 7.4672 4.64748 7.19731C4.75929 6.92742 4.8058 6.63494 4.78322 6.34368C4.76064 6.05249 4.66964 5.77074 4.51763 5.52135M7.19711 3.10514C7.65566 1.21495 10.3443 1.21495 10.8029 3.10514L10.8029 3.10529C10.83 3.21707 10.8831 3.32087 10.9579 3.40825C11.0327 3.49563 11.127 3.56412 11.2333 3.60814C11.3395 3.65217 11.4547 3.67048 11.5694 3.66158C11.684 3.65269 11.795 3.61685 11.8932 3.55698L11.8934 3.55687C13.5542 2.5451 15.4555 4.44573 14.444 6.10726L14.4439 6.10736C14.3841 6.20552 14.3483 6.3164 14.3395 6.43099C14.3306 6.54558 14.3489 6.66065 14.3929 6.76684C14.4368 6.87303 14.5052 6.96734 14.5925 7.04212C14.6797 7.11683 14.7833 7.16993 14.8949 7.19711C16.785 7.65566 16.785 10.3443 14.8949 10.8029L14.8947 10.8029C14.7829 10.83 14.6791 10.8831 14.5917 10.9579C14.5044 11.0327 14.4359 11.127 14.3919 11.2333C14.3478 11.3395 14.3295 11.4547 14.3384 11.5694C14.3473 11.684 14.3831 11.795 14.443 11.8932L14.4431 11.8934C15.4549 13.5542 13.5543 15.4555 11.8927 14.444L11.8926 14.4439C11.7945 14.3841 11.6836 14.3483 11.569 14.3395C11.4544 14.3306 11.3394 14.3489 11.2332 14.3929C11.127 14.4368 11.0327 14.5052 10.9579 14.5925C10.8832 14.6797 10.8301 14.7833 10.8029 14.8949C10.3443 16.785 7.65566 16.785 7.19711 14.8949L7.19707 14.8947C7.16998 14.7829 7.11689 14.6791 7.04211 14.5917C6.96733 14.5044 6.87297 14.4359 6.76671 14.3919C6.66046 14.3478 6.54531 14.3295 6.43064 14.3384C6.31598 14.3473 6.20503 14.3831 6.10683 14.443L6.10665 14.4431C4.44584 15.4549 2.54449 13.5543 3.55604 11.8927L3.5561 11.8926C3.61589 11.7945 3.65167 11.6836 3.66054 11.569C3.66941 11.4544 3.65112 11.3394 3.60715 11.2332C3.56318 11.127 3.49477 11.0327 3.40749 10.9579C3.32029 10.8832 3.2167 10.8301 3.10514 10.8029C1.21495 10.3443 1.21495 7.65566 3.10514 7.19711L3.10529 7.19707C3.21707 7.16998 3.32087 7.11689 3.40825 7.04211C3.49563 6.96733 3.56412 6.87297 3.60814 6.76671C3.65217 6.66046 3.67048 6.54531 3.66158 6.43064C3.65269 6.31597 3.61685 6.20503 3.55698 6.10683L3.55687 6.10665C2.54516 4.44593 4.44552 2.5447 6.10698 3.55586M7.19711 3.10514C7.07995 3.58609 6.53201 3.81404 6.10726 3.55604Z" fill="#2C3E50"/>
<path fill-rule="evenodd" clip-rule="evenodd" d="M9 7.3125C8.06802 7.3125 7.3125 8.06802 7.3125 9C7.3125 9.93198 8.06802 10.6875 9 10.6875C9.93198 10.6875 10.6875 9.93198 10.6875 9C10.6875 8.06802 9.93198 7.3125 9 7.3125ZM6.1875 9C6.1875 7.4467 7.4467 6.1875 9 6.1875C10.5533 6.1875 11.8125 7.4467 11.8125 9C11.8125 10.5533 10.5533 11.8125 9 11.8125C7.4467 11.8125 6.1875 10.5533 6.1875 9Z" fill="#2C3E50"/>
</svg>
