<?xml version="1.0" encoding="utf-8"?>
<!-- Generator: Adobe Illustrator 24.3.0, SVG Export Plug-In . SVG Version: 6.00 Build 0)  -->
<svg version="1.1" id="レイヤー_1" xmlns="http://www.w3.org/2000/svg" xmlns:xlink="http://www.w3.org/1999/xlink" x="0px"
	 y="0px" viewBox="0 0 48 48" style="enable-background:new 0 0 48 48;" xml:space="preserve">
<style type="text/css">
	.st0{fill-rule:evenodd;clip-rule:evenodd;fill:#1A1A1A;}
</style>
<path class="st0" d="M10,15.5c-1.4,0-2.5,1.1-2.5,2.5v18c0,1.4,1.1,2.5,2.5,2.5h28c1.4,0,2.5-1.1,2.5-2.5V18c0-1.4-1.1-2.5-2.5-2.5
	H10z M4.5,18c0-3,2.5-5.5,5.5-5.5h28c3,0,5.5,2.5,5.5,5.5v18c0,3-2.5,5.5-5.5,5.5H10c-3,0-5.5-2.5-5.5-5.5V18z"/>
<path class="st0" d="M20,7.5c-0.7,0-1.3,0.3-1.8,0.7c-0.5,0.5-0.7,1.1-0.7,1.8v4c0,0.8-0.7,1.5-1.5,1.5s-1.5-0.7-1.5-1.5v-4
	c0-1.5,0.6-2.9,1.6-3.9c1-1,2.4-1.6,3.9-1.6h8c1.5,0,2.9,0.6,3.9,1.6c1,1,1.6,2.4,1.6,3.9v4c0,0.8-0.7,1.5-1.5,1.5s-1.5-0.7-1.5-1.5
	v-4c0-0.7-0.3-1.3-0.7-1.8c-0.5-0.5-1.1-0.7-1.8-0.7H20z"/>
<path class="st0" d="M24,22.5c0.8,0,1.5,0.7,1.5,1.5v0c0,0.8-0.7,1.5-1.5,1.5s-1.5-0.7-1.5-1.5v0C22.5,23.2,23.2,22.5,24,22.5z"/>
<path class="st0" d="M4.7,25.3c0.4-0.7,1.3-1,2-0.7C12,27.4,18,28.8,24,28.8s12-1.4,17.3-4.1c0.7-0.4,1.6-0.1,2,0.7
	c0.4,0.7,0.1,1.6-0.7,2c-5.8,2.9-12.2,4.4-18.7,4.4s-12.9-1.5-18.7-4.4C4.6,27,4.3,26.1,4.7,25.3z"/>
</svg>
