<svg width="24" height="24" viewBox="0 0 24 24" fill="none" xmlns="http://www.w3.org/2000/svg">
<path fill-rule="evenodd" clip-rule="evenodd" d="M11.7374 4.91053C11.9514 4.69649 12.2985 4.69649 12.5125 4.91053L19.0894 11.4874C19.2461 11.6441 19.293 11.8799 19.2082 12.0847C19.1234 12.2895 18.9235 12.423 18.7018 12.423H17.2403C16.9376 12.423 16.6922 12.1776 16.6922 11.8749C16.6922 11.5723 16.9376 11.3269 17.2403 11.3269H17.3787L12.125 6.07316L6.87125 11.3269H7.00962C7.31231 11.3269 7.55769 11.5723 7.55769 11.8749C7.55769 12.1776 7.31231 12.423 7.00962 12.423H5.54809C5.32641 12.423 5.12657 12.2895 5.04174 12.0847C4.9569 11.8799 5.0038 11.6441 5.16054 11.4874L11.7374 4.91053Z" fill="#1A1A1A"/>
<path fill-rule="evenodd" clip-rule="evenodd" d="M7.00901 11.3271C7.3117 11.3271 7.55708 11.5725 7.55708 11.8752V16.9906C7.55708 17.2328 7.65332 17.4652 7.82463 17.6365C7.99593 17.8078 8.22827 17.904 8.47054 17.904H15.7782C16.0204 17.904 16.2528 17.8078 16.4241 17.6365C16.5954 17.4652 16.6916 17.2328 16.6916 16.9906V11.8752C16.6916 11.5725 16.937 11.3271 17.2397 11.3271C17.5424 11.3271 17.7878 11.5725 17.7878 11.8752V16.9906C17.7878 17.5235 17.576 18.0347 17.1992 18.4116C16.8223 18.7884 16.3112 19.0002 15.7782 19.0002H8.47054C7.93756 19.0002 7.42641 18.7884 7.04954 18.4116C6.67266 18.0347 6.46094 17.5235 6.46094 16.9906V11.8752C6.46094 11.5725 6.70632 11.3271 7.00901 11.3271Z" fill="#1A1A1A"/>
<path fill-rule="evenodd" clip-rule="evenodd" d="M10.1152 11.8752C10.1152 11.5725 10.3606 11.3271 10.6633 11.3271H13.5864C13.8891 11.3271 14.1344 11.5725 14.1344 11.8752V14.7983C14.1344 15.101 13.8891 15.3463 13.5864 15.3463H10.6633C10.3606 15.3463 10.1152 15.101 10.1152 14.7983V11.8752ZM11.2114 12.4233V14.2502H13.0383V12.4233H11.2114Z" fill="#1A1A1A"/>
</svg>
