<svg width="48" height="48" viewBox="0 0 48 48" fill="none" xmlns="http://www.w3.org/2000/svg">
<path fill-rule="evenodd" clip-rule="evenodd" d="M10 15.5C8.61929 15.5 7.5 16.6193 7.5 18V36C7.5 37.3807 8.61929 38.5 10 38.5H38C39.3807 38.5 40.5 37.3807 40.5 36V18C40.5 16.6193 39.3807 15.5 38 15.5H10ZM4.5 18C4.5 14.9624 6.96243 12.5 10 12.5H38C41.0376 12.5 43.5 14.9624 43.5 18V36C43.5 39.0376 41.0376 41.5 38 41.5H10C6.96243 41.5 4.5 39.0376 4.5 36V18Z" fill="#1A1A1A"/>
<path fill-rule="evenodd" clip-rule="evenodd" d="M20 7.5C19.337 7.5 18.7011 7.76339 18.2322 8.23223C17.7634 8.70107 17.5 9.33696 17.5 10V14C17.5 14.8284 16.8284 15.5 16 15.5C15.1716 15.5 14.5 14.8284 14.5 14V10C14.5 8.54131 15.0795 7.14236 16.1109 6.11091C17.1424 5.07946 18.5413 4.5 20 4.5H28C29.4587 4.5 30.8576 5.07946 31.8891 6.11091C32.9205 7.14236 33.5 8.54131 33.5 10V14C33.5 14.8284 32.8284 15.5 32 15.5C31.1716 15.5 30.5 14.8284 30.5 14V10C30.5 9.33696 30.2366 8.70107 29.7678 8.23223C29.2989 7.76339 28.663 7.5 28 7.5H20Z" fill="#1A1A1A"/>
<path fill-rule="evenodd" clip-rule="evenodd" d="M24 22.5C24.8284 22.5 25.5 23.1716 25.5 24V24.02C25.5 24.8484 24.8284 25.52 24 25.52C23.1716 25.52 22.5 24.8484 22.5 24.02V24C22.5 23.1716 23.1716 22.5 24 22.5Z" fill="#1A1A1A"/>
<path fill-rule="evenodd" clip-rule="evenodd" d="M4.66078 25.3248C5.03357 24.585 5.93552 24.2875 6.67532 24.6603C12.0491 27.3682 17.9828 28.7787 24.0003 28.7787C30.0178 28.7787 35.9515 27.3682 41.3253 24.6603C42.0651 24.2875 42.9671 24.585 43.3399 25.3248C43.7127 26.0646 43.4151 26.9666 42.6753 27.3394C36.8828 30.2583 30.4867 31.7787 24.0003 31.7787C17.5139 31.7787 11.1179 30.2583 5.32532 27.3394C4.58552 26.9666 4.28799 26.0646 4.66078 25.3248Z" fill="#1A1A1A"/>
</svg>
