<svg width="48" height="48" viewBox="0 0 48 48" fill="none" xmlns="http://www.w3.org/2000/svg">
<path d="M29.1455 39.2909H15.6455C12.5364 39.2909 10 36.7545 10 33.6455V32.1727C10 31.5182 10.4909 31.0273 11.1455 31.0273H13.0273V15.6455C13.0273 12.5364 15.5636 10 18.6727 10H35.2C37.4909 10 39.2909 11.8818 39.2909 14.0909C39.2909 16.3 37.4091 18.1818 35.2 18.1818H33.3182V35.0364C33.2364 37.4091 31.4364 39.2909 29.1455 39.2909ZM15.2364 31.0273H26.1182C26.7727 31.0273 27.2636 31.5182 27.2636 32.1727V35.2C27.2636 36.2636 28.0818 37.0818 29.1455 37.0818C30.2091 37.0818 31.0273 36.2636 31.0273 35.2V14.1727C31.0273 13.5182 31.1909 12.8636 31.5182 12.2909H18.6727C16.7909 12.2909 15.3182 13.8455 15.3182 15.6455V31.0273H15.2364ZM12.2909 33.2364V33.6455C12.2909 35.5273 13.8455 37 15.6455 37H25.4636C25.1364 36.4273 24.9727 35.7727 24.9727 35.1182V33.2364H12.2909ZM33.2364 16.0545H35.1182C36.1818 16.0545 37 15.2364 37 14.1727C37 13.1091 36.1818 12.2909 35.1182 12.2909C34.0545 12.2909 33.2364 13.1091 33.2364 14.1727V16.0545Z" fill="white"/>
<path d="M26.1182 18.2636H20.1455C19.4909 18.2636 19 17.7727 19 17.1181C19 16.4636 19.4909 15.9727 20.1455 15.9727H26.1182C26.7727 15.9727 27.2636 16.4636 27.2636 17.1181C27.2636 17.7727 26.7727 18.2636 26.1182 18.2636Z" fill="white"/>
<path d="M26.1182 24.2362H20.1455C19.4909 24.2362 19 23.7453 19 23.0908C19 22.4362 19.4909 21.9453 20.1455 21.9453H26.1182C26.7727 21.9453 27.2636 22.4362 27.2636 23.0908C27.2636 23.7453 26.7727 24.2362 26.1182 24.2362Z" fill="white"/>
</svg>
