<svg width="98" height="28" viewBox="0 0 98 28" fill="none" xmlns="http://www.w3.org/2000/svg">
<path d="M28.6825 13.3317C28.6825 13.3317 28.6825 16.3397 28.6825 17.6023C28.6825 18.8649 28.2384 20.276 26.647 21.5757C25.1296 22.8012 22.465 22.6527 20.9846 22.6527C18.394 22.6527 16.0254 20.9816 16.0254 18.0479C16.0254 15.4113 18.431 13.4802 21.4287 13.4802C23.9453 13.4802 25.2406 14.4829 25.2406 14.4829V13.7031C25.2406 11.8834 23.5012 11.3264 22.2799 11.3264C21.0216 11.3264 19.7263 11.7349 18.9491 12.032C18.505 12.1805 18.0239 11.9948 17.8758 11.5492L17.3577 10.2495C17.1727 9.80385 17.3947 9.32109 17.8388 9.13541C18.8011 8.76406 20.5775 8.20703 22.465 8.20703C26.3509 8.20703 28.6825 10.2123 28.6825 13.3317ZM25.2036 18.1593V16.7481C25.2036 16.7481 23.9453 16.0426 22.0949 16.0426C21.0216 16.0426 19.5413 16.5253 19.5413 17.9736C19.5413 19.4219 20.9476 19.7561 22.0209 19.7561C24.0934 19.7561 25.2036 18.1593 25.2036 18.1593Z" fill="#1A1A1A"/>
<path d="M30.9029 18.4192C31.199 18.0107 31.7912 17.9365 32.1983 18.2707C32.9384 18.8649 34.1967 19.6447 35.6401 19.6447C37.0464 19.6447 38.2307 19.2362 38.2307 18.3821C38.2307 17.4909 37.6016 17.3052 35.4921 16.8596C32.7534 16.2654 30.3848 15.1142 30.3848 12.5147C30.3848 10.3609 32.5313 8.20703 36.3063 8.20703C38.2307 8.20703 39.7481 8.87547 40.6363 9.35822C41.0804 9.61817 41.2285 10.2123 40.9324 10.658L40.1922 11.7349C39.9332 12.1062 39.415 12.2548 39.0079 12.032C38.3788 11.6977 37.3795 11.2893 36.2693 11.2893C34.9739 11.2893 33.7896 11.7349 33.7896 12.589C33.7896 13.4431 34.7149 13.6288 37.0464 14.1115C39.7851 14.7057 41.7096 15.597 41.7096 18.4564C41.7096 20.7959 39.23 22.6898 35.7141 22.6898C32.9754 22.6898 31.088 21.5386 30.1628 20.7959C29.7927 20.4988 29.7186 19.9046 30.0147 19.5333L30.9029 18.4192Z" fill="#1A1A1A"/>
<path d="M58.7709 0H60.3993C60.9174 0 61.3245 0.408488 61.3245 0.928382V21.0557C61.3245 21.5756 60.9174 21.9841 60.3993 21.9841H58.7709C58.2528 21.9841 57.8457 21.5756 57.8457 21.0557V0.928382C57.8827 0.408488 58.2898 0 58.7709 0Z" fill="#096FCA"/>
<path d="M66.1354 1.44824C67.3937 1.44824 68.43 2.45089 68.43 3.75063C68.43 5.01323 67.4307 6.05302 66.1354 6.05302C64.8771 6.05302 63.8408 5.05036 63.8408 3.75063C63.8408 2.48803 64.8401 1.44824 66.1354 1.44824ZM65.5062 8.20686H66.7645C67.3567 8.20686 67.8748 8.68962 67.8748 9.32092V20.87C67.8748 21.4642 67.3937 21.9841 66.7645 21.9841H65.5062C64.9141 21.9841 64.396 21.5013 64.396 20.87V9.28379C64.396 8.68962 64.8771 8.20686 65.5062 8.20686Z" fill="#096FCA"/>
<path d="M83.1225 13.0348V20.9075C83.1225 21.4646 82.6784 21.9473 82.0863 21.9473H80.6799C80.1248 21.9473 79.6437 21.5017 79.6437 20.9075V13.9261C79.6437 11.9579 78.4224 11.1038 76.905 11.1038C74.2404 11.1038 74.1663 13.4805 74.1663 13.4805V20.9447C74.1663 21.5017 73.7222 21.9845 73.1301 21.9845H71.7238C71.1686 21.9845 70.6875 21.5388 70.6875 20.9447V12.4036C70.6875 10.2126 72.2049 7.87305 76.831 7.87305C81.4571 7.87305 83.1225 9.72981 83.1225 13.0348Z" fill="#096FCA"/>
<path d="M11.6579 11.2147C11.954 11.1404 13.7674 9.95207 13.7674 7.464C13.7674 3.19345 10.6217 1.6709 7.32785 1.6709H1.92452C1.25836 1.6709 0.740234 2.22793 0.740234 2.89636V20.7956C0.740234 21.464 1.29537 22.021 1.96153 22.021H8.03102C11.843 22.021 14.8037 19.5701 14.8037 16.0051C14.8037 12.3287 11.917 11.2889 11.6579 11.2147ZM4.18208 4.97594H7.17981C8.88223 4.97594 10.2146 5.71864 10.2146 7.464C10.2146 9.20936 9.10428 9.95207 7.17981 9.95207H4.18208V4.97594ZM7.91999 18.716H4.21909V13.2942H7.91999C9.80746 13.2942 11.2878 14.0741 11.2878 16.0051C11.2508 17.899 9.80746 18.716 7.91999 18.716Z" fill="#1A1A1A"/>
<path d="M13.2122 27.9997H0.851209C0.370091 27.9997 0 27.6284 0 27.1456V25.0289C0 24.5462 0.370091 24.1748 0.851209 24.1748H13.2122C13.6934 24.1748 14.0634 24.5462 14.0634 25.0289V27.1456C14.0634 27.6284 13.6934 27.9997 13.2122 27.9997Z" fill="#096FCA"/>
<path d="M97.9998 15.3742C97.9998 15.4485 97.9998 15.5227 97.9998 15.6341C97.9998 16.2283 97.5187 16.6739 96.9635 16.6739H87.7113C87.9703 17.8994 89.3767 19.4591 91.5602 19.4591C92.8925 19.4591 93.8918 19.0134 94.558 18.6421C95.0391 18.345 95.6312 18.4936 95.9273 18.9763L96.5194 19.8304C96.8525 20.3132 96.7045 20.9816 96.2234 21.2787C95.2981 21.8729 93.6697 22.6156 91.5972 22.6156C87.4152 22.6156 84.2324 19.4219 84.2324 15.3742C84.2324 11.3264 87.1561 8.13281 91.1161 8.13281C94.854 8.20708 97.9998 11.1408 97.9998 15.3742ZM94.5209 14.1487C94.4469 12.9604 93.3737 11.3636 91.0791 11.3636C88.8586 11.3636 87.8223 12.9233 87.7113 14.1487H94.5209Z" fill="#096FCA"/>
<path d="M56.2909 15.3742C56.2909 15.4485 56.2909 15.5227 56.2909 15.6341C56.2909 16.2283 55.8098 16.6739 55.2547 16.6739H46.0394C46.2985 17.8994 47.7048 19.4591 49.8883 19.4591C51.2207 19.4591 52.2199 19.0134 52.8861 18.6421C53.3672 18.345 53.9593 18.4936 54.2554 18.9763L54.8476 19.8304C55.1806 20.3132 55.0326 20.9816 54.5515 21.2787C53.6263 21.8729 51.9979 22.6156 49.9254 22.6156C45.7433 22.6156 42.5605 19.4219 42.5605 15.3742C42.5605 11.3264 45.4843 8.13281 49.4442 8.13281C53.1451 8.20708 56.2909 11.1408 56.2909 15.3742ZM52.8121 14.1487C52.738 12.9604 51.6648 11.3636 49.3702 11.3636C47.1497 11.3636 46.1134 12.9233 46.0024 14.1487H52.8121Z" fill="#1A1A1A"/>
</svg>
