<svg width="18" height="18" viewBox="0 0 18 18" fill="none" xmlns="http://www.w3.org/2000/svg">
<path fill-rule="evenodd" clip-rule="evenodd" d="M10.1023 3.35254C10.705 2.74977 11.5226 2.41113 12.375 2.41113C13.2274 2.41113 14.045 2.74977 14.6477 3.35254C15.2505 3.95531 15.5892 4.77284 15.5892 5.62528C15.5892 6.47773 15.2505 7.29526 14.6477 7.89803L11.6497 10.8961C11.3533 11.198 10.9998 11.4379 10.6098 11.6018C10.2189 11.766 9.79906 11.8507 9.375 11.8507C8.95094 11.8507 8.53114 11.766 8.14019 11.6018C7.74924 11.4375 7.395 11.1969 7.09821 10.894C6.8808 10.6721 6.88443 10.3159 7.10633 10.0985C7.32823 9.88108 7.68437 9.88472 7.90179 10.1066C8.09382 10.3026 8.32304 10.4583 8.576 10.5646C8.82897 10.6709 9.10061 10.7257 9.375 10.7257C9.64939 10.7257 9.92103 10.6709 10.174 10.5646C10.427 10.4583 10.6562 10.3026 10.8482 10.1066L10.8522 10.1025L10.8523 10.1025L13.8523 7.10254C14.244 6.71074 14.4642 6.17936 14.4642 5.62528C14.4642 5.07121 14.244 4.53982 13.8523 4.14803C13.4605 3.75624 12.9291 3.53613 12.375 3.53613C11.8209 3.53613 11.2895 3.75624 10.8977 4.14803L10.5227 4.52303C10.3031 4.7427 9.94692 4.7427 9.72725 4.52303C9.50758 4.30336 9.50758 3.94721 9.72725 3.72754L10.1023 3.35254Z" fill="#1A1A1A"/>
<path fill-rule="evenodd" clip-rule="evenodd" d="M7.39145 6.3988C7.7824 6.23452 8.2022 6.1499 8.62626 6.1499C9.05032 6.1499 9.47012 6.23452 9.86107 6.3988C10.252 6.56308 10.6063 6.80371 10.903 7.10662C11.1205 7.32852 11.1168 7.68465 10.8949 7.90207C10.673 8.11949 10.3169 8.11585 10.0995 7.89395C9.90744 7.69796 9.67823 7.54225 9.42526 7.43595C9.17229 7.32966 8.90065 7.2749 8.62626 7.2749C8.35187 7.2749 8.08023 7.32966 7.82726 7.43595C7.5743 7.54225 7.34508 7.69796 7.15305 7.89395L7.14903 7.89805L7.14901 7.89803L4.14901 10.898C3.75722 11.2898 3.53711 11.8212 3.53711 12.3753C3.53711 12.9294 3.75722 13.4607 4.14901 13.8525C4.5408 14.2443 5.07218 14.4644 5.62626 14.4644C6.18034 14.4644 6.71172 14.2443 7.10351 13.8525L7.47851 13.4775C7.69818 13.2579 8.05434 13.2579 8.27401 13.4775C8.49368 13.6972 8.49368 14.0534 8.27401 14.273L7.89901 14.648C7.29624 15.2508 6.47871 15.5894 5.62626 15.5894C4.77381 15.5894 3.95628 15.2508 3.35351 14.648C2.75074 14.0453 2.41211 13.2277 2.41211 12.3753C2.41211 11.5228 2.75074 10.7053 3.35351 10.1025L6.35157 7.10448C6.64792 6.80258 7.00142 6.56269 7.39145 6.3988Z" fill="#1A1A1A"/>
</svg>
