<svg width="18" height="18" viewBox="0 0 18 18" fill="none" xmlns="http://www.w3.org/2000/svg">
<path fill-rule="evenodd" clip-rule="evenodd" d="M10.4773 3.72748C10.9806 3.22417 11.6632 2.94141 12.375 2.94141C13.0868 2.94141 13.7694 3.22417 14.2727 3.72748C14.7761 4.23079 15.0588 4.91343 15.0588 5.62523C15.0588 6.33702 14.7761 7.01966 14.2727 7.52297L6.39775 15.398C6.29226 15.5035 6.14918 15.5627 6 15.5627H3C2.68934 15.5627 2.4375 15.3109 2.4375 15.0002V12.0002C2.4375 11.851 2.49676 11.708 2.60225 11.6025L10.4773 3.72748ZM12.375 4.06641C11.9616 4.06641 11.5651 4.23064 11.2727 4.52297L3.5625 12.2332V14.4377H5.767L13.4773 6.72748C13.7696 6.43514 13.9338 6.03865 13.9338 5.62523C13.9338 5.2118 13.7696 4.81531 13.4773 4.52297C13.1849 4.23064 12.7884 4.06641 12.375 4.06641Z" fill="#096FCA"/>
<path fill-rule="evenodd" clip-rule="evenodd" d="M9.72725 4.47725C9.94692 4.25758 10.3031 4.25758 10.5227 4.47725L13.5227 7.47725C13.7424 7.69692 13.7424 8.05308 13.5227 8.27275C13.3031 8.49242 12.9469 8.49242 12.7273 8.27275L9.72725 5.27275C9.50758 5.05308 9.50758 4.69692 9.72725 4.47725Z" fill="#096FCA"/>
</svg>
