<svg width="24" height="24" viewBox="0 0 24 24" fill="none" xmlns="http://www.w3.org/2000/svg">
<path fill-rule="evenodd" clip-rule="evenodd" d="M10.7272 6.10849C8.17634 6.10849 6.10849 8.17634 6.10849 10.7272C6.10849 13.278 8.17634 15.3459 10.7272 15.3459C13.278 15.3459 15.3459 13.278 15.3459 10.7272C15.3459 8.17634 13.278 6.10849 10.7272 6.10849ZM5 10.7272C5 7.56414 7.56414 5 10.7272 5C13.8902 5 16.4544 7.56414 16.4544 10.7272C16.4544 13.8902 13.8902 16.4544 10.7272 16.4544C7.56414 16.4544 5 13.8902 5 10.7272Z" fill="#1A1A1A"/>
<path fill-rule="evenodd" clip-rule="evenodd" d="M14.0583 14.0583C14.2571 13.8595 14.5794 13.8595 14.7782 14.0583L18.8509 18.1309C19.0497 18.3298 19.0497 18.6521 18.8509 18.8509C18.6521 19.0497 18.3298 19.0497 18.1309 18.8509L14.0583 14.7782C13.8595 14.5794 13.8595 14.2571 14.0583 14.0583Z" fill="#1A1A1A"/>
</svg>
