<svg width="24" height="24" viewBox="0 0 24 24" fill="none" xmlns="http://www.w3.org/2000/svg">
<path d="M14.5727 19.6455H7.82273C6.26818 19.6455 5 18.3773 5 16.8227V16.0864C5 15.7591 5.24545 15.5136 5.57273 15.5136H6.51364V7.82273C6.51364 6.26818 7.78182 5 9.33636 5H17.6C18.7455 5 19.6455 5.94091 19.6455 7.04545C19.6455 8.15 18.7045 9.09091 17.6 9.09091H16.6591V17.5182C16.6182 18.7045 15.7182 19.6455 14.5727 19.6455ZM7.61818 15.5136H13.0591C13.3864 15.5136 13.6318 15.7591 13.6318 16.0864V17.6C13.6318 18.1318 14.0409 18.5409 14.5727 18.5409C15.1045 18.5409 15.5136 18.1318 15.5136 17.6V7.08636C15.5136 6.75909 15.5955 6.43182 15.7591 6.14545H9.33636C8.39545 6.14545 7.65909 6.92273 7.65909 7.82273V15.5136H7.61818ZM6.14545 16.6182V16.8227C6.14545 17.7636 6.92273 18.5 7.82273 18.5H12.7318C12.5682 18.2136 12.4864 17.8864 12.4864 17.5591V16.6182H6.14545ZM16.6182 8.02727H17.5591C18.0909 8.02727 18.5 7.61818 18.5 7.08636C18.5 6.55455 18.0909 6.14545 17.5591 6.14545C17.0273 6.14545 16.6182 6.55455 16.6182 7.08636V8.02727Z" fill="#1A1A1A"/>
<path d="M13.0591 9.13178H10.0727C9.74545 9.13178 9.5 8.88633 9.5 8.55906C9.5 8.23178 9.74545 7.98633 10.0727 7.98633H13.0591C13.3864 7.98633 13.6318 8.23178 13.6318 8.55906C13.6318 8.88633 13.3864 9.13178 13.0591 9.13178Z" fill="#1A1A1A"/>
<path d="M13.0591 12.1181H10.0727C9.74545 12.1181 9.5 11.8727 9.5 11.5454C9.5 11.2181 9.74545 10.9727 10.0727 10.9727H13.0591C13.3864 10.9727 13.6318 11.2181 13.6318 11.5454C13.6318 11.8727 13.3864 12.1181 13.0591 12.1181Z" fill="#1A1A1A"/>
</svg>
