<svg width="24" height="24" viewBox="0 0 24 24" fill="none" xmlns="http://www.w3.org/2000/svg">
<path d="M11.6811 11.9091C9.49929 11.9091 7.72656 10.1364 7.72656 7.95455C7.72656 5.77273 9.49929 4 11.6811 4C13.8629 4 15.6357 5.77273 15.6357 7.95455C15.6357 10.1364 13.8629 11.9091 11.6811 11.9091ZM11.6811 5.27273C10.1811 5.27273 8.95384 6.5 8.95384 8C8.95384 9.5 10.1811 10.7273 11.6811 10.7273C13.1811 10.7273 14.4084 9.5 14.4084 8C14.4084 6.45455 13.1811 5.27273 11.6811 5.27273Z" fill="#1A1A1A"/>
<path d="M16.6818 20.2727C16.3182 20.2727 16.0455 20 16.0455 19.6364V17.9545C16.0455 16.4545 14.8182 15.2273 13.3182 15.2273H10C8.5 15.2273 7.27273 16.4545 7.27273 17.9545V19.6364C7.27273 20 7 20.2727 6.63636 20.2727C6.27273 20.2727 6 20 6 19.6364V17.9545C6 15.7727 7.77273 14 9.95455 14H13.2727C15.4545 14 17.2273 15.7727 17.2273 17.9545V19.6364C17.3182 20 17.0455 20.2727 16.6818 20.2727Z" fill="#1A1A1A"/>
</svg>
