<svg width="18" height="18" viewBox="0 0 18 18" fill="none" xmlns="http://www.w3.org/2000/svg">
<path fill-rule="evenodd" clip-rule="evenodd" d="M2.4375 5.24963C2.4375 4.93897 2.68934 4.68713 3 4.68713H15C15.3107 4.68713 15.5625 4.93897 15.5625 5.24963C15.5625 5.56029 15.3107 5.81213 15 5.81213H3C2.68934 5.81213 2.4375 5.56029 2.4375 5.24963Z" fill="#F26F6F"/>
<path fill-rule="evenodd" clip-rule="evenodd" d="M7.5 7.68787C7.81066 7.68787 8.0625 7.93971 8.0625 8.25037V12.7504C8.0625 13.061 7.81066 13.3129 7.5 13.3129C7.18934 13.3129 6.9375 13.061 6.9375 12.7504V8.25037C6.9375 7.93971 7.18934 7.68787 7.5 7.68787Z" fill="#F26F6F"/>
<path fill-rule="evenodd" clip-rule="evenodd" d="M10.5 7.68787C10.8107 7.68787 11.0625 7.93971 11.0625 8.25037V12.7504C11.0625 13.061 10.8107 13.3129 10.5 13.3129C10.1893 13.3129 9.9375 13.061 9.9375 12.7504V8.25037C9.9375 7.93971 10.1893 7.68787 10.5 7.68787Z" fill="#F26F6F"/>
<path fill-rule="evenodd" clip-rule="evenodd" d="M3.70332 4.68899C4.01291 4.66319 4.28479 4.89324 4.31059 5.20283L5.06059 14.2028C5.06188 14.2184 5.06253 14.234 5.06253 14.2495C5.06253 14.4982 5.1613 14.7366 5.33712 14.9125C5.51293 15.0883 5.75139 15.187 6.00003 15.187H12C12.2487 15.187 12.4871 15.0883 12.6629 14.9125C12.8388 14.7366 12.9375 14.4982 12.9375 14.2495C12.9375 14.234 12.9382 14.2184 12.9395 14.2028L13.6895 5.20283C13.7153 4.89324 13.9872 4.66319 14.2967 4.68899C14.6063 4.71478 14.8364 4.98667 14.8106 5.29626L14.0624 14.2748C14.0558 14.8127 13.8393 15.3271 13.4584 15.7079C13.0716 16.0947 12.547 16.312 12 16.312H6.00003C5.45302 16.312 4.92842 16.0947 4.54162 15.7079C4.16079 15.3271 3.94426 14.8127 3.93769 14.2748L3.18947 5.29626C3.16368 4.98667 3.39373 4.71478 3.70332 4.68899Z" fill="#F26F6F"/>
<path fill-rule="evenodd" clip-rule="evenodd" d="M7.5 2.8125C7.45027 2.8125 7.40258 2.83225 7.36742 2.86742C7.33225 2.90258 7.3125 2.95027 7.3125 3V5.25C7.3125 5.56066 7.06066 5.8125 6.75 5.8125C6.43934 5.8125 6.1875 5.56066 6.1875 5.25V3C6.1875 2.6519 6.32578 2.31806 6.57192 2.07192C6.81806 1.82578 7.1519 1.6875 7.5 1.6875H10.5C10.8481 1.6875 11.1819 1.82578 11.4281 2.07192C11.6742 2.31806 11.8125 2.6519 11.8125 3V5.25C11.8125 5.56066 11.5607 5.8125 11.25 5.8125C10.9393 5.8125 10.6875 5.56066 10.6875 5.25V3C10.6875 2.95027 10.6677 2.90258 10.6326 2.86742C10.5974 2.83225 10.5497 2.8125 10.5 2.8125H7.5Z" fill="#F26F6F"/>
</svg>
