<svg width="32" height="32" viewBox="0 0 32 32" fill="none" xmlns="http://www.w3.org/2000/svg">
<g opacity="0.24">
<rect width="32" height="32" rx="4" fill="white"/>
<path fill-rule="evenodd" clip-rule="evenodd" d="M16.7071 20.7071C17.0976 20.3166 17.0976 19.6834 16.7071 19.2929L14.4142 17L20 17C20.5523 17 21 16.5523 21 16C21 15.4477 20.5523 15 20 15L14.4142 15L16.7071 12.7071C17.0976 12.3166 17.0976 11.6834 16.7071 11.2929C16.3166 10.9024 15.6834 10.9024 15.2929 11.2929L11.2929 15.2929C10.9024 15.6834 10.9024 16.3166 11.2929 16.7071L15.2929 20.7071C15.6834 21.0976 16.3166 21.0976 16.7071 20.7071Z" fill="#1A1A1A"/>
</g>
</svg>
