<svg width="48" height="48" viewBox="0 0 48 48" fill="none" xmlns="http://www.w3.org/2000/svg">
<path fill-rule="evenodd" clip-rule="evenodd" d="M14 33.5005C12.6193 33.5005 11.5 34.6198 11.5 36.0005C11.5 37.3812 12.6193 38.5005 14 38.5005C15.3807 38.5005 16.5 37.3812 16.5 36.0005C16.5 34.6198 15.3807 33.5005 14 33.5005ZM8.5 36.0005C8.5 32.9629 10.9624 30.5005 14 30.5005C17.0376 30.5005 19.5 32.9629 19.5 36.0005C19.5 39.0381 17.0376 41.5005 14 41.5005C10.9624 41.5005 8.5 39.0381 8.5 36.0005Z" fill="#1A1A1A"/>
<path fill-rule="evenodd" clip-rule="evenodd" d="M14 9.50049C12.6193 9.50049 11.5 10.6198 11.5 12.0005C11.5 13.3812 12.6193 14.5005 14 14.5005C15.3807 14.5005 16.5 13.3812 16.5 12.0005C16.5 10.6198 15.3807 9.50049 14 9.50049ZM8.5 12.0005C8.5 8.96292 10.9624 6.50049 14 6.50049C17.0376 6.50049 19.5 8.96292 19.5 12.0005C19.5 15.0381 17.0376 17.5005 14 17.5005C10.9624 17.5005 8.5 15.0381 8.5 12.0005Z" fill="#1A1A1A"/>
<path fill-rule="evenodd" clip-rule="evenodd" d="M34 21.5005C32.6193 21.5005 31.5 22.6198 31.5 24.0005C31.5 25.3812 32.6193 26.5005 34 26.5005C35.3807 26.5005 36.5 25.3812 36.5 24.0005C36.5 22.6198 35.3807 21.5005 34 21.5005ZM28.5 24.0005C28.5 20.9629 30.9624 18.5005 34 18.5005C37.0376 18.5005 39.5 20.9629 39.5 24.0005C39.5 27.0381 37.0376 29.5005 34 29.5005C30.9624 29.5005 28.5 27.0381 28.5 24.0005Z" fill="#1A1A1A"/>
<path fill-rule="evenodd" clip-rule="evenodd" d="M14 14.4995C14.8284 14.4995 15.5 15.1711 15.5 15.9995V31.9995C15.5 32.8279 14.8284 33.4995 14 33.4995C13.1716 33.4995 12.5 32.8279 12.5 31.9995V15.9995C12.5 15.1711 13.1716 14.4995 14 14.4995Z" fill="#1A1A1A"/>
<path fill-rule="evenodd" clip-rule="evenodd" d="M14 14.4995C14.8284 14.4995 15.5 15.1711 15.5 15.9995C15.5 17.7234 16.1848 19.3767 17.4038 20.5957C18.6228 21.8147 20.2761 22.4995 22 22.4995H30C30.8284 22.4995 31.5 23.1711 31.5 23.9995C31.5 24.8279 30.8284 25.4995 30 25.4995H22C19.4804 25.4995 17.0641 24.4986 15.2825 22.717C13.5009 20.9354 12.5 18.5191 12.5 15.9995C12.5 15.1711 13.1716 14.4995 14 14.4995Z" fill="#1A1A1A"/>
</svg>
