<svg width="32" height="32" viewBox="0 0 32 32" fill="none" xmlns="http://www.w3.org/2000/svg">
<path fill-rule="evenodd" clip-rule="evenodd" d="M9.2985 10.017C8.63764 10.017 8.10191 10.5527 8.10191 11.2135V20.7862C8.10191 21.447 8.63764 21.9828 9.2985 21.9828H22.7002C23.3611 21.9828 23.8968 21.447 23.8968 20.7862V11.2135C23.8968 10.5527 23.3611 10.017 22.7002 10.017H9.2985ZM6.66602 11.2135C6.66602 9.75966 7.84462 8.58105 9.2985 8.58105H22.7002C24.1541 8.58105 25.3327 9.75966 25.3327 11.2135V20.7862C25.3327 22.2401 24.1541 23.4187 22.7002 23.4187H9.2985C7.84462 23.4187 6.66602 22.2401 6.66602 20.7862V11.2135Z" fill="white"/>
<path fill-rule="evenodd" clip-rule="evenodd" d="M6.78667 10.8155C7.00662 10.4856 7.45237 10.3964 7.78229 10.6164L15.9994 16.0945L24.2166 10.6164C24.5465 10.3964 24.9923 10.4856 25.2122 10.8155C25.4321 11.1454 25.343 11.5912 25.0131 11.8111L16.3977 17.5547C16.1565 17.7155 15.8423 17.7155 15.6012 17.5547L6.98579 11.8111C6.65588 11.5912 6.56673 11.1454 6.78667 10.8155Z" fill="white"/>
</svg>
