<svg width="15" height="15" viewBox="0 0 15 15" fill="none" xmlns="http://www.w3.org/2000/svg">
<path fill-rule="evenodd" clip-rule="evenodd" d="M1.04159 4.29159C1.42839 3.9048 1.95299 3.6875 2.5 3.6875H4.75C5.06066 3.6875 5.3125 3.93934 5.3125 4.25C5.3125 4.56066 5.06066 4.8125 4.75 4.8125H2.5C2.25136 4.8125 2.0129 4.91127 1.83709 5.08709C1.66127 5.2629 1.5625 5.50136 1.5625 5.75V12.5C1.5625 12.7486 1.66127 12.9871 1.83709 13.1629C2.0129 13.3387 2.25136 13.4375 2.5 13.4375H9.25C9.49864 13.4375 9.73709 13.3387 9.91291 13.1629C10.0887 12.9871 10.1875 12.7486 10.1875 12.5V10.25C10.1875 9.93934 10.4393 9.6875 10.75 9.6875C11.0607 9.6875 11.3125 9.93934 11.3125 10.25V12.5C11.3125 13.047 11.0952 13.5716 10.7084 13.9584C10.3216 14.3452 9.79701 14.5625 9.25 14.5625H2.5C1.95299 14.5625 1.42839 14.3452 1.04159 13.9584C0.654798 13.5716 0.4375 13.047 0.4375 12.5V5.75C0.4375 5.20299 0.654798 4.67839 1.04159 4.29159Z" fill="#1A1A1A"/>
<path fill-rule="evenodd" clip-rule="evenodd" d="M10.7273 1.22718C11.1311 0.82332 11.6789 0.596436 12.25 0.596436C12.8211 0.596436 13.3689 0.82332 13.7727 1.22718C14.1766 1.63104 14.4035 2.17878 14.4035 2.74993C14.4035 3.32107 14.1766 3.86881 13.7727 4.27267L7.39775 10.6477C7.29226 10.7532 7.14918 10.8124 7 10.8124H4.75C4.43934 10.8124 4.1875 10.5606 4.1875 10.2499V7.99992C4.1875 7.85074 4.24676 7.70767 4.35225 7.60218L10.7273 1.22718ZM12.25 1.72144C11.9772 1.72144 11.7156 1.82979 11.5227 2.02267L5.3125 8.23292V9.68742H6.76701L12.9773 3.47718C13.1701 3.2843 13.2785 3.0227 13.2785 2.74993C13.2785 2.47715 13.1701 2.21555 12.9773 2.02267C12.7844 1.82979 12.5228 1.72144 12.25 1.72144Z" fill="#1A1A1A"/>
<path fill-rule="evenodd" clip-rule="evenodd" d="M9.60225 2.35225C9.82192 2.13258 10.1781 2.13258 10.3977 2.35225L12.6477 4.60225C12.8674 4.82192 12.8674 5.17808 12.6477 5.39775C12.4281 5.61742 12.0719 5.61742 11.8523 5.39775L9.60225 3.14775C9.38258 2.92808 9.38258 2.57192 9.60225 2.35225Z" fill="#1A1A1A"/>
</svg>
