<svg width="14" height="14" viewBox="0 0 14 14" fill="none" xmlns="http://www.w3.org/2000/svg">
<path fill-rule="evenodd" clip-rule="evenodd" d="M8.14963 2.89899C8.54109 2.50752 9.07204 2.2876 9.62565 2.2876C10.1793 2.2876 10.7102 2.50752 11.1017 2.89899C11.4931 3.29045 11.7131 3.8214 11.7131 4.37501C11.7131 4.92863 11.4931 5.45957 11.1017 5.85104L4.97668 11.976C4.89463 12.0581 4.78335 12.1042 4.66732 12.1042H2.33398C2.09236 12.1042 1.89648 11.9083 1.89648 11.6667V9.33335C1.89648 9.21731 1.94258 9.10603 2.02463 9.02399L8.14963 2.89899ZM9.62565 3.1626C9.3041 3.1626 8.99572 3.29033 8.76835 3.51771L2.77148 9.51457V11.2292H4.4861L10.483 5.23232C10.7103 5.00495 10.8381 4.69657 10.8381 4.37501C10.8381 4.05346 10.7103 3.74508 10.483 3.51771C10.2556 3.29033 9.94721 3.1626 9.62565 3.1626Z" fill="#545454"/>
<path fill-rule="evenodd" clip-rule="evenodd" d="M7.56564 3.4823C7.7365 3.31144 8.0135 3.31144 8.18436 3.4823L10.5177 5.81563C10.6885 5.98649 10.6885 6.2635 10.5177 6.43435C10.3468 6.6052 10.0698 6.6052 9.89897 6.43435L7.56564 4.10102C7.39479 3.93016 7.39479 3.65315 7.56564 3.4823Z" fill="#545454"/>
</svg>
