<svg width="44" height="44" viewBox="0 0 44 44" fill="none" xmlns="http://www.w3.org/2000/svg">
<g opacity="0.8">
<path fill-rule="evenodd" clip-rule="evenodd" d="M16.5 8.7085C16.3784 8.7085 16.2619 8.75678 16.1759 8.84274C16.09 8.92869 16.0417 9.04527 16.0417 9.16683C16.0417 10.504 15.5105 11.7863 14.565 12.7318C13.6195 13.6773 12.3371 14.2085 11 14.2085H9.16667C8.55888 14.2085 7.97598 14.4499 7.54621 14.8797C7.11644 15.3095 6.875 15.8924 6.875 16.5002V33.0002C6.875 33.608 7.11644 34.1908 7.54621 34.6206C7.97598 35.0504 8.55888 35.2918 9.16667 35.2918H34.8333C35.4411 35.2918 36.024 35.0504 36.4538 34.6206C36.8836 34.1908 37.125 33.608 37.125 33.0002V16.5002C37.125 15.8924 36.8836 15.3095 36.4538 14.8797C36.024 14.4499 35.4411 14.2085 34.8333 14.2085H33C31.6629 14.2085 30.3805 13.6773 29.435 12.7318C28.4895 11.7863 27.9583 10.504 27.9583 9.16683C27.9583 9.04527 27.91 8.92869 27.8241 8.84274C27.7381 8.75678 27.6216 8.7085 27.5 8.7085H16.5ZM9.16667 11.4585C7.82953 11.4585 6.54717 11.9897 5.60167 12.9352C4.65617 13.8807 4.125 15.163 4.125 16.5002V33.0002C4.125 34.3373 4.65617 35.6197 5.60167 36.5652C6.54717 37.5107 7.82953 38.0418 9.16667 38.0418H34.8333C36.1705 38.0418 37.4528 37.5107 38.3983 36.5652C39.3438 35.6197 39.875 34.3373 39.875 33.0002V16.5002C39.875 15.163 39.3438 13.8807 38.3983 12.9352C37.4528 11.9897 36.1705 11.4585 34.8333 11.4585H33C32.3922 11.4585 31.8093 11.2171 31.3795 10.7873C30.9498 10.3575 30.7083 9.77462 30.7083 9.16683C30.7083 8.31593 30.3703 7.49987 29.7686 6.8982C29.167 6.29652 28.3509 5.9585 27.5 5.9585H16.5C15.6491 5.9585 14.833 6.29652 14.2314 6.8982C13.6297 7.49987 13.2917 8.31593 13.2917 9.16683C13.2917 9.77462 13.0502 10.3575 12.6205 10.7873C12.1907 11.2171 11.6078 11.4585 11 11.4585H9.16667Z" fill="white"/>
<path fill-rule="evenodd" clip-rule="evenodd" d="M22 19.7085C19.7218 19.7085 17.875 21.5553 17.875 23.8335C17.875 26.1117 19.7218 27.9585 22 27.9585C24.2782 27.9585 26.125 26.1117 26.125 23.8335C26.125 21.5553 24.2782 19.7085 22 19.7085ZM15.125 23.8335C15.125 20.0365 18.203 16.9585 22 16.9585C25.797 16.9585 28.875 20.0365 28.875 23.8335C28.875 27.6305 25.797 30.7085 22 30.7085C18.203 30.7085 15.125 27.6305 15.125 23.8335Z" fill="white"/>
</g>
</svg>
