<svg width="266" height="161" viewBox="0 0 266 161" fill="none" xmlns="http://www.w3.org/2000/svg">
<g clip-path="url(#clip0)">
<g opacity="0.1">
<path opacity="0.1" d="M23.8549 106.603H47.1837C48.1484 106.866 49.0254 107.392 49.727 108.093C50.6917 109.144 51.3056 110.545 51.3056 112.122C51.3056 114.837 49.4639 117.027 47.096 117.64H33.239C29.5556 117.64 26.486 120.619 26.486 124.385C26.486 128.152 29.4679 131.13 33.239 131.13H92.9641V117.728H69.9862V106.691H92.9641V58.9517H23.8549C10.6996 58.9517 0 69.6383 0 82.7776C0 95.9168 10.6996 106.603 23.8549 106.603Z" fill="#42667D"/>
</g>
<path opacity="0.2" d="M247.495 122.02H229.34C228.551 121.845 227.937 121.407 227.323 120.881C226.534 120.093 226.095 118.954 226.095 117.728C226.095 115.626 227.499 113.874 229.428 113.436H240.215C243.11 113.436 245.478 111.071 245.478 108.18C245.478 105.289 243.11 102.924 240.215 102.924H193.733V113.348H211.625V121.932H51.6562V158.985H247.495C257.756 158.985 266.088 150.664 266.088 140.415C266 130.342 257.756 122.02 247.495 122.02Z" fill="#B1C8DB"/>
<path d="M214.519 150.664H54.3751C51.1301 150.664 48.499 148.036 48.499 144.795V45.9875C48.499 42.7465 51.1301 40.1187 54.3751 40.1187H214.519C217.764 40.1187 220.395 42.7465 220.395 45.9875V144.795C220.395 148.036 217.764 150.664 214.519 150.664Z" fill="#096FCA"/>
<g opacity="0.2">
<path opacity="0.2" d="M188.296 49.4037C197.353 49.4037 204.696 42.07 204.696 33.0234C204.696 23.9768 197.353 16.6431 188.296 16.6431C179.238 16.6431 171.896 23.9768 171.896 33.0234C171.896 42.07 179.238 49.4037 188.296 49.4037Z" fill="#42667D"/>
</g>
<g opacity="0.2">
<path opacity="0.2" d="M213.116 50.7173C216.555 50.7173 219.342 47.9329 219.342 44.4981C219.342 41.0633 216.555 38.2788 213.116 38.2788C209.677 38.2788 206.889 41.0633 206.889 44.4981C206.889 47.9329 209.677 50.7173 213.116 50.7173Z" fill="#42667D"/>
</g>
<path d="M55.0771 31.8845L56.3927 29.7822L59.3745 31.8845V33.8992L55.0771 31.8845Z" fill="#1A1A1A"/>
<path d="M67.4424 26.4536L68.9333 28.9063L71.2136 34.8628C71.2136 34.8628 74.8093 35.9139 75.511 33.5489C76.3003 31.1838 71.2136 24.001 71.2136 24.001L67.4424 26.4536Z" fill="#1A1A1A"/>
<path d="M28.2402 30.1325L33.4146 33.6363C33.4146 33.6363 34.9056 28.1178 38.8522 27.0667V22.5117C38.8522 22.5117 30.3451 23.5629 28.2402 30.1325Z" fill="#096FCA"/>
<path d="M141.112 11.1245L146.725 9.46021C146.725 9.46021 143.305 -1.83957 137.341 0.262716L135.587 4.90526C135.587 4.90526 141.551 3.06576 141.112 11.1245Z" fill="#096FCA"/>
<path d="M189.26 28.5561L185.051 24.8771C185.051 24.8771 187.682 18.3074 189.962 17.957L192.681 19.9717C192.593 19.8841 188.822 23.3003 189.26 28.5561Z" fill="#096FCA"/>
<path d="M146.813 34.0744L150.146 32.6729C150.146 32.6729 151.462 35.5635 153.654 35.7387C155.847 35.9139 156.812 34.4248 156.812 34.4248L158.39 37.2278C158.39 37.2278 152.602 44.761 146.813 34.0744Z" fill="#1A1A1A"/>
<path d="M218.29 88.3837C219.693 80.5001 217.939 78.3978 215.747 79.5366C211.888 81.3761 218.29 88.3837 218.29 88.3837Z" fill="#42667D"/>
<path d="M81.5626 83.3905L77.5283 81.2006C77.5283 81.2006 80.7733 72.7915 85.2461 72.7915L88.2279 75.6821C88.2279 75.7697 81.9134 78.3976 81.5626 83.3905Z" fill="#42667D"/>
<path d="M209.345 145.145H59.6375C56.568 145.145 54.1123 142.692 54.1123 139.627V51.2431C54.1123 48.1773 56.568 45.7246 59.6375 45.7246H209.345C212.414 45.7246 214.87 48.1773 214.87 51.2431V139.627C214.87 142.692 212.414 145.145 209.345 145.145Z" fill="white"/>
<path d="M214.87 58.689H54.0244V59.8277H214.87V58.689Z" fill="#096FCA"/>
<g opacity="0.8">
<path opacity="0.3" d="M65.9521 54.6594C67.2115 54.6594 68.2324 53.6398 68.2324 52.382C68.2324 51.1242 67.2115 50.1045 65.9521 50.1045C64.6928 50.1045 63.6719 51.1242 63.6719 52.382C63.6719 53.6398 64.6928 54.6594 65.9521 54.6594Z" fill="#096FCA"/>
</g>
<g opacity="0.8">
<path opacity="0.3" d="M73.7568 54.6594C75.0162 54.6594 76.0371 53.6398 76.0371 52.382C76.0371 51.1242 75.0162 50.1045 73.7568 50.1045C72.4975 50.1045 71.4766 51.1242 71.4766 52.382C71.4766 53.6398 72.4975 54.6594 73.7568 54.6594Z" fill="#096FCA"/>
</g>
<g opacity="0.8">
<path opacity="0.3" d="M81.5625 54.6594C82.8218 54.6594 83.8427 53.6398 83.8427 52.382C83.8427 51.1242 82.8218 50.1045 81.5625 50.1045C80.3031 50.1045 79.2822 51.1242 79.2822 52.382C79.2822 53.6398 80.3031 54.6594 81.5625 54.6594Z" fill="#096FCA"/>
</g>
<g opacity="0.1">
<path d="M133.219 94.4276C140.678 94.4276 146.725 88.3881 146.725 80.9379C146.725 73.4878 140.678 67.4482 133.219 67.4482C125.76 67.4482 119.713 73.4878 119.713 80.9379C119.713 88.3881 125.76 94.4276 133.219 94.4276Z" fill="#096FCA"/>
</g>
<path d="M132.342 85.0287C132.167 85.0287 131.992 84.9411 131.904 84.8535L128.571 82.2257C128.22 81.9629 128.22 81.5249 128.483 81.1745C128.747 80.8241 129.185 80.8241 129.536 81.0869L132.43 83.3644L138.131 77.6707C138.394 77.4079 138.92 77.4079 139.183 77.6707C139.446 77.9335 139.446 78.4591 139.183 78.7219L132.956 84.8535C132.693 84.9411 132.518 85.0287 132.342 85.0287Z" fill="#096FCA"/>
<path d="M149.094 139.539H117.345C113.487 139.539 110.417 136.473 110.417 132.619C110.417 128.765 113.487 125.699 117.345 125.699H149.094C152.952 125.699 156.022 128.765 156.022 132.619C156.022 136.473 152.952 139.539 149.094 139.539Z" fill="#096FCA"/>
<path d="M121.643 134.459C121.38 134.371 121.117 134.283 120.941 134.108L121.292 133.407C121.468 133.495 121.643 133.67 121.906 133.67C122.169 133.67 122.345 133.758 122.608 133.758C122.871 133.758 123.046 133.758 123.222 133.67C123.309 133.583 123.397 133.495 123.397 133.32C123.397 133.232 123.397 133.145 123.309 133.057C123.222 132.969 123.134 132.969 123.046 132.882C122.959 132.882 122.783 132.794 122.608 132.794C122.345 132.707 122.082 132.619 121.906 132.619C121.731 132.531 121.555 132.444 121.38 132.269C121.205 132.094 121.205 131.918 121.205 131.656C121.205 131.393 121.292 131.218 121.38 131.042C121.468 130.867 121.731 130.692 121.906 130.604C122.169 130.517 122.432 130.429 122.783 130.429C123.046 130.429 123.309 130.429 123.485 130.517C123.748 130.604 123.923 130.692 124.099 130.78L123.836 131.48C123.485 131.305 123.134 131.13 122.783 131.13C122.52 131.13 122.345 131.13 122.257 131.218C122.169 131.305 122.082 131.393 122.082 131.568C122.082 131.743 122.169 131.831 122.257 131.831C122.345 131.831 122.608 131.918 122.871 132.006C123.134 132.094 123.397 132.181 123.572 132.181C123.748 132.269 123.923 132.356 124.099 132.531C124.274 132.707 124.274 132.882 124.274 133.145C124.274 133.407 124.186 133.583 124.099 133.758C124.011 133.933 123.748 134.108 123.572 134.196C123.397 134.283 123.046 134.371 122.695 134.371C122.169 134.546 121.906 134.546 121.643 134.459Z" fill="white"/>
<path d="M128.045 131.48V134.546H127.168V134.196C127.08 134.283 126.905 134.458 126.729 134.458C126.554 134.546 126.379 134.546 126.203 134.546C125.765 134.546 125.502 134.458 125.239 134.196C124.975 133.933 124.888 133.67 124.888 133.144V131.393H125.765V132.969C125.765 133.495 125.94 133.67 126.379 133.67C126.554 133.67 126.729 133.582 126.905 133.495C126.993 133.32 127.08 133.144 127.08 132.882V131.393H128.045V131.48Z" fill="white"/>
<path d="M129.711 134.371C129.448 134.196 129.273 134.021 129.097 133.845C128.922 133.583 128.922 133.32 128.922 133.057C128.922 132.794 129.01 132.531 129.097 132.269C129.273 132.006 129.448 131.831 129.711 131.743C129.974 131.655 130.237 131.568 130.588 131.568C130.939 131.568 131.202 131.655 131.465 131.743C131.728 131.831 131.904 132.093 131.991 132.356L131.29 132.707C131.114 132.444 130.939 132.269 130.588 132.269C130.325 132.269 130.15 132.356 130.062 132.531C129.887 132.707 129.799 132.882 129.799 133.145C129.799 133.407 129.887 133.583 130.062 133.758C130.237 133.933 130.413 134.021 130.588 134.021C130.851 134.021 131.114 133.845 131.29 133.583L131.991 133.933C131.904 134.196 131.728 134.371 131.465 134.459C131.202 134.546 130.939 134.634 130.588 134.634C130.237 134.546 129.887 134.459 129.711 134.371Z" fill="white"/>
<path d="M133.22 134.371C132.957 134.196 132.781 134.021 132.606 133.845C132.431 133.583 132.431 133.32 132.431 133.057C132.431 132.794 132.518 132.531 132.606 132.269C132.781 132.006 132.957 131.831 133.22 131.743C133.483 131.655 133.746 131.568 134.097 131.568C134.448 131.568 134.711 131.655 134.974 131.743C135.237 131.831 135.413 132.093 135.5 132.356L134.799 132.707C134.623 132.444 134.448 132.269 134.097 132.269C133.834 132.269 133.659 132.356 133.571 132.531C133.395 132.707 133.308 132.882 133.308 133.145C133.308 133.407 133.395 133.583 133.571 133.758C133.746 133.933 133.922 134.021 134.097 134.021C134.36 134.021 134.623 133.845 134.799 133.583L135.5 133.933C135.413 134.196 135.237 134.371 134.974 134.459C134.711 134.546 134.448 134.634 134.097 134.634C133.746 134.546 133.483 134.459 133.22 134.371Z" fill="white"/>
<path d="M139.096 133.232H136.816C136.816 133.407 136.991 133.583 137.079 133.67C137.254 133.758 137.43 133.845 137.693 133.845C137.868 133.845 137.956 133.845 138.131 133.758C138.307 133.67 138.394 133.67 138.482 133.495L138.92 134.021C138.657 134.371 138.219 134.546 137.693 134.546C137.342 134.546 137.079 134.458 136.816 134.371C136.553 134.283 136.377 134.021 136.202 133.845C136.026 133.67 136.026 133.32 136.026 133.057C136.026 132.794 136.114 132.531 136.202 132.269C136.377 132.006 136.553 131.831 136.816 131.743C137.079 131.568 137.342 131.568 137.605 131.568C137.868 131.568 138.131 131.655 138.394 131.743C138.657 131.831 138.833 132.093 138.92 132.269C139.096 132.531 139.096 132.794 139.096 133.057C139.184 132.969 139.184 133.057 139.096 133.232ZM137.079 132.269C136.903 132.356 136.903 132.531 136.816 132.707H138.307C138.307 132.531 138.219 132.356 138.043 132.269C137.868 132.181 137.78 132.093 137.517 132.093C137.342 132.093 137.254 132.181 137.079 132.269Z" fill="white"/>
<path d="M140.236 134.459C139.973 134.371 139.797 134.284 139.622 134.196L139.885 133.583C140.061 133.67 140.148 133.758 140.411 133.758C140.587 133.846 140.762 133.846 140.938 133.846C141.288 133.846 141.464 133.758 141.464 133.583C141.464 133.495 141.376 133.408 141.288 133.408C141.201 133.408 141.025 133.32 140.85 133.32C140.587 133.32 140.411 133.232 140.236 133.232C140.061 133.145 139.973 133.057 139.797 132.97C139.71 132.882 139.622 132.707 139.622 132.444C139.622 132.269 139.71 132.094 139.797 131.918C139.885 131.743 140.061 131.656 140.324 131.568C140.499 131.48 140.762 131.48 141.113 131.48C141.288 131.48 141.552 131.48 141.727 131.568C141.902 131.656 142.078 131.656 142.253 131.743L141.99 132.356C141.727 132.181 141.464 132.094 141.113 132.094C140.938 132.094 140.762 132.094 140.674 132.181C140.587 132.269 140.499 132.269 140.499 132.356C140.499 132.444 140.587 132.532 140.674 132.532C140.762 132.532 140.938 132.619 141.201 132.619C141.464 132.619 141.639 132.707 141.815 132.794C141.99 132.882 142.078 132.97 142.253 133.057C142.429 133.145 142.429 133.32 142.429 133.583C142.429 133.758 142.341 133.933 142.253 134.108C142.165 134.284 141.99 134.371 141.727 134.459C141.464 134.546 141.288 134.546 140.938 134.546C140.762 134.546 140.499 134.546 140.236 134.459Z" fill="white"/>
<path d="M143.481 134.459C143.218 134.371 143.043 134.284 142.867 134.196L143.13 133.583C143.306 133.67 143.393 133.758 143.657 133.758C143.832 133.846 144.007 133.846 144.183 133.846C144.534 133.846 144.709 133.758 144.709 133.583C144.709 133.495 144.621 133.408 144.534 133.408C144.446 133.408 144.27 133.32 144.095 133.32C143.832 133.32 143.657 133.232 143.481 133.232C143.306 133.145 143.218 133.057 143.043 132.97C142.955 132.882 142.867 132.707 142.867 132.444C142.867 132.269 142.955 132.094 143.043 131.918C143.13 131.743 143.306 131.656 143.569 131.568C143.744 131.48 144.007 131.48 144.358 131.48C144.534 131.48 144.797 131.48 144.972 131.568C145.147 131.656 145.323 131.656 145.498 131.743L145.235 132.356C144.972 132.181 144.709 132.094 144.358 132.094C144.183 132.094 144.007 132.094 143.92 132.181C143.832 132.269 143.744 132.269 143.744 132.356C143.744 132.444 143.832 132.532 143.92 132.532C144.007 132.532 144.183 132.619 144.446 132.619C144.709 132.619 144.884 132.707 145.06 132.794C145.235 132.882 145.323 132.97 145.498 133.057C145.674 133.145 145.674 133.32 145.674 133.583C145.674 133.758 145.586 133.933 145.498 134.108C145.411 134.284 145.235 134.371 144.972 134.459C144.709 134.546 144.534 134.546 144.183 134.546C143.92 134.546 143.744 134.546 143.481 134.459Z" fill="white"/>
<path d="M230.569 130.78L229.867 134.459C229.867 134.459 233.112 136.561 234.778 139.802C236.971 137.963 236.357 134.722 236.357 134.722L230.569 130.78Z" fill="#096FCA"/>
<g opacity="0.5">
<g opacity="0.5">
<path opacity="0.5" d="M105.155 45.199H103.488C103.488 38.1038 100.682 34.7752 98.2262 31.797C96.5599 29.7823 94.9813 27.9428 94.8936 25.4025L96.5599 25.3149C96.6476 27.3296 97.9631 28.8187 99.5418 30.7458C101.997 33.8117 105.155 37.5783 105.155 45.199Z" fill="#104D80"/>
</g>
<g opacity="0.5">
<path opacity="0.5" d="M96.8224 28.819C89.5432 18.8332 90.4202 7.18299 95.6823 7.70856C102.26 8.40932 94.893 17.5192 96.8224 28.819Z" fill="#104D80"/>
</g>
<g opacity="0.5">
<path opacity="0.5" d="M99.9798 33.6367C91.0342 28.7313 89.2802 31.8848 90.3326 34.6878C91.1219 36.7901 96.9979 36.2645 98.4012 35.2134C99.8044 34.1622 101.295 35.9142 101.558 36.7901L99.9798 33.6367Z" fill="#104D80"/>
</g>
<g opacity="0.5">
<path opacity="0.5" d="M103.751 40.1188C105.154 32.498 109.189 30.7461 110.767 32.498C113.398 35.3887 106.47 37.1406 103.751 40.1188Z" fill="#104D80"/>
</g>
</g>
<g opacity="0.5">
<g opacity="0.5">
<path opacity="0.5" d="M49.1133 76.0327C43.0619 67.1856 37.1859 63.7694 32.45 61.0539C29.3804 59.302 26.7493 57.7253 25.083 55.185L26.4862 54.3091C27.8895 56.5866 30.2574 57.9005 33.2393 59.6524C37.7998 62.2802 44.1143 65.9592 50.4289 75.0691L49.1133 76.0327Z" fill="#104D80"/>
</g>
<g opacity="0.5">
<path opacity="0.5" d="M27.8014 58.0759C14.2953 46.9513 16.4001 36.1771 19.8205 34.0748C23.2409 31.9725 29.9939 38.367 27.8014 46.0754C25.6088 53.7837 27.8014 58.0759 27.8014 58.0759Z" fill="#104D80"/>
</g>
<g opacity="0.5">
<path opacity="0.5" d="M42.3602 67.0108C29.3803 62.2807 28.3279 64.1202 28.2402 66.748C28.1525 69.2883 34.1162 69.9015 42.3602 67.0108Z" fill="#104D80"/>
</g>
<g opacity="0.5">
<path opacity="0.5" d="M46.7449 70.7773C41.9213 63.9449 43.7631 60.4411 46.6572 60.0907C49.5514 59.7403 49.0252 65.6092 47.6219 67.8867C46.3064 70.1642 46.7449 70.7773 46.7449 70.7773Z" fill="#104D80"/>
</g>
</g>
<g opacity="0.5">
<g opacity="0.5">
<path opacity="0.5" d="M49.3756 88.1208C39.8161 82.7775 34.554 86.1937 34.2909 86.3689L33.3262 84.9673C33.5893 84.7921 39.6407 80.7628 50.1649 86.6316L49.3756 88.1208Z" fill="#104D80"/>
</g>
<g opacity="0.5">
<path opacity="0.5" d="M36.6592 83.916C26.3104 85.9307 21.9253 91.8872 27.012 97.0553C27.012 97.0553 31.8356 100.121 33.0635 93.9019C34.2913 87.6826 36.6592 83.916 36.6592 83.916Z" fill="#104D80"/>
</g>
<g opacity="0.5">
<path opacity="0.5" d="M41.0444 84.4417C36.2208 80.3247 38.2379 76.5582 40.5182 76.1202C42.7984 75.6822 44.6401 77.6969 43.5 79.624C42.3599 81.5511 40.6059 82.427 41.0444 84.4417Z" fill="#104D80"/>
</g>
</g>
<g opacity="0.5">
<g opacity="0.5">
<path opacity="0.5" d="M219.781 115.801C224.692 107.129 221.973 104.589 219.781 105.027C217.588 105.465 216.799 108.619 218.115 110.808C219.43 112.911 219.781 115.801 219.781 115.801Z" fill="#104D80"/>
</g>
<g opacity="0.5">
<path opacity="0.5" d="M225.745 110.808C231.27 106.253 236.094 106.691 236.269 110.02C236.445 113.436 225.745 110.808 225.745 110.808Z" fill="#104D80"/>
</g>
<g opacity="0.5">
<path opacity="0.5" d="M233.813 99.1582C239.865 85.9313 239.251 77.6974 233.813 79.7997C228.902 81.6392 231.007 87.7709 232.673 91.4498C234.339 95.2164 233.813 99.1582 233.813 99.1582Z" fill="#104D80"/>
</g>
<g opacity="0.5">
<path opacity="0.5" d="M214.169 120.181L213.555 119.217C227.85 110.633 232.235 101.523 234.515 94.4277L235.568 94.7781C233.375 102.049 228.815 111.421 214.169 120.181Z" fill="#104D80"/>
</g>
<g opacity="0.5">
<path opacity="0.5" d="M220.658 82.8653C229.428 71.4779 234.603 73.4926 234.603 77.084C234.515 82.0769 221.974 79.0987 220.658 82.8653Z" fill="#104D80"/>
</g>
<g opacity="0.5">
<path opacity="0.5" d="M225.658 72.7043C232.849 60.5286 230.745 50.4551 225.921 53.6962C221.185 57.0248 227.324 64.9084 225.658 72.7043Z" fill="#104D80"/>
</g>
<g opacity="0.5">
<path opacity="0.5" d="M233.199 64.3827C241.882 55.7108 248.986 57.4627 248.109 61.7549C247.056 66.6602 235.041 61.3169 233.199 64.3827Z" fill="#104D80"/>
</g>
<g opacity="0.5">
<path opacity="0.5" d="M214.344 94.9533L213.467 94.2526C219.518 86.5442 220.746 82.5148 221.711 79.2738C222.412 76.9087 223.026 74.9816 225.219 72.3538C226.447 70.8647 227.762 69.4631 229.078 68.1492C232.937 64.1198 236.62 60.3532 237.497 53.6084L238.637 53.7836C237.76 60.8788 233.989 64.8206 229.955 68.9376C228.727 70.2515 227.411 71.5654 226.184 73.0545C224.166 75.4196 223.64 77.2591 222.939 79.6242C221.798 82.9528 220.483 87.0698 214.344 94.9533Z" fill="#104D80"/>
</g>
<g opacity="0.5">
<path opacity="0.5" d="M236.708 57.1123C239.865 51.0683 243.549 51.1558 246.531 46.4257C249.6 41.6956 250.565 33.8996 243.987 34.4252C237.41 34.9507 238.637 51.331 236.708 57.1123Z" fill="#104D80"/>
</g>
</g>
<path d="M201.803 99.9459L206.451 102.924C206.451 102.924 207.328 96.2669 212.064 94.4274L209.52 91.7119C209.433 91.7119 203.381 94.077 201.803 99.9459Z" fill="#1A1A1A"/>
<path d="M53.5855 76.9961L56.2165 72.266C56.2165 72.266 49.025 71.39 48.2356 68.9374C47.4463 66.4847 47.0955 64.5576 47.0955 64.5576L44.2891 69.8133C44.2891 69.8133 45.5169 75.6822 53.5855 76.9961Z" fill="#1A1A1A"/>
<path d="M44.3765 136.911C40.693 132.269 38.6758 133.232 38.4127 134.459C38.1496 135.685 39.7283 136.911 41.2192 136.649C42.7978 136.386 44.3765 136.911 44.3765 136.911Z" fill="#104D80"/>
<path d="M42.9739 132.444C41.6584 128.415 43.0616 125.787 44.9034 126.488C46.8328 127.188 42.9739 132.444 42.9739 132.444Z" fill="#104D80"/>
<path d="M38.413 125.436C32.4493 119.13 27.8011 117.64 27.7134 121.057C27.6257 124.21 31.4846 124.385 33.9402 124.298C36.3082 124.21 38.413 125.436 38.413 125.436Z" fill="#104D80"/>
<path d="M44.9026 141.028C43.4117 131.218 39.2897 126.75 35.957 123.86L36.3955 123.334C39.9036 126.225 44.0256 130.867 45.6042 140.853L44.9026 141.028Z" fill="#104D80"/>
<path d="M47.8852 128.152C48.7622 116.151 53.3227 115.1 54.9891 117.641C57.357 121.144 47.0959 124.911 47.8852 128.152Z" fill="#104D80"/>
<path d="M46.745 118.692C46.1311 106.779 39.992 100.735 38.1502 105.202C36.3085 109.669 44.2894 112.472 46.745 118.692Z" fill="#104D80"/>
<path d="M48.148 109.407C50.1651 99.2456 56.0412 97.2309 57.3567 100.647C58.9353 104.501 48.0603 106.341 48.148 109.407Z" fill="#104D80"/>
<path d="M49.1129 139.539L48.2359 139.452C48.8498 131.218 47.8851 127.801 47.0958 125.086C46.4819 123.159 46.0433 121.407 46.3065 118.604C46.4819 116.94 46.745 115.451 47.0958 113.874C47.9728 109.319 48.7621 104.939 46.2188 99.771L47.0081 99.333C49.6391 104.764 48.8498 109.231 47.8851 113.961C47.622 115.451 47.2712 117.027 47.0958 118.604C46.8327 121.232 47.2712 122.721 47.7974 124.736C48.7621 127.626 49.7268 131.218 49.1129 139.539Z" fill="#104D80"/>
<path d="M47.2716 102.662C46.6576 96.968 49.2887 95.3037 49.201 90.5735C49.1133 85.8434 46.2191 79.8869 41.834 83.3031C37.5366 86.7194 45.956 97.6688 47.2716 102.662Z" fill="#104D80"/>
<path d="M55.3394 161H38.413L34.7295 139.364H59.0229L55.3394 161Z" fill="#1A1A1A"/>
<path d="M158.74 57.5502L163.652 62.6307C163.652 62.6307 176.018 60.5284 177.508 56.1487L174.702 54.0464C174.702 53.9588 166.37 59.7401 158.74 57.5502Z" fill="#096FCA"/>
<path d="M91.5224 107.853C90.8324 107.853 90.2069 107.704 89.6459 107.407C89.0913 107.104 88.6528 106.688 88.3304 106.158C88.0144 105.622 87.8564 105.019 87.8564 104.347C87.8564 103.676 88.0144 103.075 88.3304 102.546C88.6528 102.01 89.0913 101.594 89.6459 101.297C90.2069 100.993 90.8356 100.842 91.5321 100.842C92.1189 100.842 92.6477 100.945 93.1184 101.151C93.5956 101.358 93.9954 101.655 94.3178 102.042L93.3119 102.972C92.854 102.443 92.2866 102.178 91.6095 102.178C91.1903 102.178 90.8163 102.272 90.4874 102.459C90.1586 102.64 89.9006 102.895 89.7136 103.224C89.5331 103.553 89.4428 103.928 89.4428 104.347C89.4428 104.767 89.5331 105.141 89.7136 105.471C89.9006 105.8 90.1586 106.058 90.4874 106.245C90.8163 106.426 91.1903 106.516 91.6095 106.516C92.2866 106.516 92.854 106.249 93.3119 105.713L94.3178 106.642C93.9954 107.036 93.5956 107.336 93.1184 107.543C92.6412 107.75 92.1092 107.853 91.5224 107.853Z" fill="#1A1A1A"/>
<path d="M98.4326 102.449C99.0774 102.449 99.5965 102.643 99.9899 103.03C100.39 103.418 100.59 103.992 100.59 104.754V107.737H99.0807V104.986C99.0807 104.573 98.9904 104.267 98.8098 104.066C98.6293 103.86 98.3681 103.756 98.0263 103.756C97.6459 103.756 97.3428 103.876 97.1171 104.115C96.8914 104.347 96.7786 104.696 96.7786 105.161V107.737H95.2696V100.551H96.7786V103.069C96.9785 102.869 97.2203 102.717 97.504 102.614C97.7877 102.504 98.0973 102.449 98.4326 102.449Z" fill="#1A1A1A"/>
<path d="M107.112 105.151C107.112 105.17 107.102 105.306 107.083 105.558H103.146C103.217 105.881 103.384 106.136 103.649 106.323C103.913 106.51 104.242 106.604 104.635 106.604C104.906 106.604 105.145 106.565 105.351 106.487C105.564 106.404 105.761 106.274 105.941 106.1L106.744 106.972C106.254 107.533 105.538 107.814 104.597 107.814C104.01 107.814 103.491 107.701 103.039 107.475C102.588 107.243 102.24 106.923 101.995 106.516C101.75 106.11 101.627 105.648 101.627 105.132C101.627 104.622 101.746 104.163 101.985 103.756C102.23 103.343 102.562 103.024 102.981 102.798C103.407 102.565 103.881 102.449 104.403 102.449C104.913 102.449 105.374 102.559 105.786 102.778C106.199 102.998 106.522 103.314 106.754 103.727C106.992 104.134 107.112 104.609 107.112 105.151ZM104.413 103.592C104.071 103.592 103.784 103.689 103.552 103.882C103.32 104.076 103.178 104.341 103.126 104.676H105.69C105.638 104.347 105.496 104.086 105.264 103.892C105.032 103.692 104.748 103.592 104.413 103.592Z" fill="#1A1A1A"/>
<path d="M110.631 107.814C110.077 107.814 109.577 107.701 109.132 107.475C108.693 107.243 108.348 106.923 108.097 106.516C107.852 106.11 107.729 105.648 107.729 105.132C107.729 104.615 107.852 104.154 108.097 103.747C108.348 103.34 108.693 103.024 109.132 102.798C109.577 102.565 110.077 102.449 110.631 102.449C111.179 102.449 111.656 102.565 112.063 102.798C112.475 103.024 112.775 103.35 112.962 103.776L111.792 104.405C111.521 103.928 111.131 103.689 110.621 103.689C110.228 103.689 109.902 103.818 109.644 104.076C109.387 104.334 109.258 104.686 109.258 105.132C109.258 105.577 109.387 105.929 109.644 106.187C109.902 106.445 110.228 106.575 110.621 106.575C111.137 106.575 111.527 106.336 111.792 105.858L112.962 106.497C112.775 106.91 112.475 107.233 112.063 107.466C111.656 107.698 111.179 107.814 110.631 107.814Z" fill="#1A1A1A"/>
<path d="M116.028 105.693L115.302 106.41V107.737H113.793V100.551H115.302V104.618L117.508 102.527H119.307L117.14 104.735L119.5 107.737H117.672L116.028 105.693Z" fill="#1A1A1A"/>
<path d="M128.083 102.527L125.733 108.056C125.494 108.657 125.198 109.08 124.843 109.325C124.495 109.57 124.072 109.693 123.576 109.693C123.305 109.693 123.037 109.651 122.773 109.567C122.509 109.483 122.293 109.367 122.125 109.218L122.676 108.143C122.792 108.247 122.925 108.327 123.073 108.386C123.228 108.444 123.379 108.473 123.528 108.473C123.734 108.473 123.902 108.421 124.03 108.318C124.159 108.221 124.276 108.056 124.379 107.824L124.398 107.775L122.144 102.527H123.702L125.162 106.061L126.632 102.527H128.083Z" fill="#1A1A1A"/>
<path d="M131.034 107.814C130.485 107.814 129.992 107.701 129.554 107.475C129.122 107.243 128.783 106.923 128.538 106.516C128.293 106.11 128.17 105.648 128.17 105.132C128.17 104.615 128.293 104.154 128.538 103.747C128.783 103.34 129.122 103.024 129.554 102.798C129.992 102.565 130.485 102.449 131.034 102.449C131.582 102.449 132.072 102.565 132.504 102.798C132.936 103.024 133.274 103.34 133.52 103.747C133.765 104.154 133.887 104.615 133.887 105.132C133.887 105.648 133.765 106.11 133.52 106.516C133.274 106.923 132.936 107.243 132.504 107.475C132.072 107.701 131.582 107.814 131.034 107.814ZM131.034 106.575C131.421 106.575 131.737 106.445 131.982 106.187C132.233 105.923 132.359 105.571 132.359 105.132C132.359 104.693 132.233 104.344 131.982 104.086C131.737 103.821 131.421 103.689 131.034 103.689C130.647 103.689 130.328 103.821 130.076 104.086C129.825 104.344 129.699 104.693 129.699 105.132C129.699 105.571 129.825 105.923 130.076 106.187C130.328 106.445 130.647 106.575 131.034 106.575Z" fill="#1A1A1A"/>
<path d="M140.138 102.527V107.737H138.707V107.117C138.507 107.343 138.268 107.517 137.991 107.64C137.714 107.756 137.414 107.814 137.091 107.814C136.408 107.814 135.866 107.617 135.466 107.223C135.067 106.83 134.867 106.245 134.867 105.471V102.527H136.376V105.248C136.376 106.087 136.727 106.507 137.43 106.507C137.791 106.507 138.081 106.391 138.3 106.158C138.52 105.919 138.629 105.567 138.629 105.103V102.527H140.138Z" fill="#1A1A1A"/>
<path d="M142.977 103.214C143.158 102.962 143.4 102.772 143.703 102.643C144.012 102.514 144.367 102.449 144.767 102.449V103.844C144.599 103.831 144.486 103.824 144.428 103.824C143.996 103.824 143.658 103.947 143.413 104.192C143.168 104.431 143.045 104.793 143.045 105.277V107.737H141.536V102.527H142.977V103.214Z" fill="#1A1A1A"/>
<path d="M153.539 105.151C153.539 105.17 153.529 105.306 153.51 105.558H149.573C149.644 105.881 149.812 106.136 150.076 106.323C150.34 106.51 150.669 106.604 151.063 106.604C151.333 106.604 151.572 106.565 151.778 106.487C151.991 106.404 152.188 106.274 152.368 106.1L153.171 106.972C152.681 107.533 151.965 107.814 151.024 107.814C150.437 107.814 149.918 107.701 149.467 107.475C149.015 107.243 148.667 106.923 148.422 106.516C148.177 106.11 148.054 105.648 148.054 105.132C148.054 104.622 148.174 104.163 148.412 103.756C148.657 103.343 148.989 103.024 149.409 102.798C149.834 102.565 150.308 102.449 150.83 102.449C151.34 102.449 151.801 102.559 152.214 102.778C152.626 102.998 152.949 103.314 153.181 103.727C153.42 104.134 153.539 104.609 153.539 105.151ZM150.84 103.592C150.498 103.592 150.211 103.689 149.979 103.882C149.747 104.076 149.605 104.341 149.554 104.676H152.117C152.065 104.347 151.923 104.086 151.691 103.892C151.459 103.692 151.175 103.592 150.84 103.592Z" fill="#1A1A1A"/>
<path d="M161.208 102.449C161.859 102.449 162.375 102.643 162.756 103.03C163.142 103.411 163.336 103.986 163.336 104.754V107.737H161.827V104.986C161.827 104.573 161.74 104.267 161.566 104.066C161.398 103.86 161.156 103.756 160.84 103.756C160.486 103.756 160.205 103.873 159.999 104.105C159.792 104.331 159.689 104.67 159.689 105.122V107.737H158.18V104.986C158.18 104.166 157.851 103.756 157.194 103.756C156.846 103.756 156.568 103.873 156.362 104.105C156.156 104.331 156.052 104.67 156.052 105.122V107.737H154.543V102.527H155.985V103.127C156.178 102.908 156.413 102.74 156.691 102.623C156.974 102.507 157.284 102.449 157.619 102.449C157.987 102.449 158.319 102.523 158.616 102.672C158.912 102.814 159.151 103.024 159.331 103.301C159.544 103.03 159.812 102.82 160.134 102.672C160.463 102.523 160.821 102.449 161.208 102.449Z" fill="#1A1A1A"/>
<path d="M166.787 102.449C167.593 102.449 168.213 102.643 168.645 103.03C169.077 103.411 169.293 103.989 169.293 104.764V107.737H167.88V107.088C167.597 107.572 167.068 107.814 166.294 107.814C165.894 107.814 165.546 107.746 165.249 107.611C164.959 107.475 164.737 107.288 164.582 107.049C164.427 106.81 164.35 106.539 164.35 106.236C164.35 105.751 164.53 105.371 164.892 105.093C165.259 104.815 165.823 104.676 166.584 104.676H167.784C167.784 104.347 167.684 104.095 167.484 103.921C167.284 103.74 166.984 103.65 166.584 103.65C166.307 103.65 166.033 103.695 165.762 103.786C165.498 103.869 165.272 103.986 165.085 104.134L164.543 103.079C164.827 102.878 165.166 102.724 165.559 102.614C165.959 102.504 166.368 102.449 166.787 102.449ZM166.671 106.797C166.929 106.797 167.158 106.739 167.358 106.623C167.558 106.5 167.7 106.323 167.784 106.09V105.558H166.749C166.13 105.558 165.82 105.761 165.82 106.168C165.82 106.362 165.894 106.516 166.043 106.633C166.197 106.742 166.407 106.797 166.671 106.797Z" fill="#1A1A1A"/>
<path d="M170.658 102.527H172.167V107.737H170.658V102.527ZM171.413 101.8C171.136 101.8 170.91 101.72 170.736 101.558C170.562 101.397 170.475 101.197 170.475 100.958C170.475 100.719 170.562 100.519 170.736 100.357C170.91 100.196 171.136 100.115 171.413 100.115C171.69 100.115 171.916 100.193 172.09 100.348C172.264 100.503 172.351 100.696 172.351 100.929C172.351 101.18 172.264 101.39 172.09 101.558C171.916 101.72 171.69 101.8 171.413 101.8Z" fill="#1A1A1A"/>
<path d="M173.568 100.551H175.077V107.737H173.568V100.551Z" fill="#1A1A1A"/>
<path d="M115.854 113.344C116.661 113.344 117.28 113.538 117.712 113.925C118.144 114.306 118.36 114.884 118.36 115.658V118.631H116.947V117.983C116.664 118.467 116.135 118.709 115.361 118.709C114.961 118.709 114.613 118.641 114.316 118.506C114.026 118.37 113.804 118.183 113.649 117.944C113.494 117.705 113.417 117.434 113.417 117.13C113.417 116.646 113.597 116.265 113.959 115.988C114.326 115.71 114.89 115.571 115.651 115.571H116.851C116.851 115.242 116.751 114.99 116.551 114.816C116.351 114.635 116.051 114.545 115.651 114.545C115.374 114.545 115.1 114.59 114.829 114.68C114.565 114.764 114.339 114.88 114.152 115.029L113.61 113.973C113.894 113.773 114.233 113.618 114.626 113.508C115.026 113.399 115.435 113.344 115.854 113.344ZM115.738 117.692C115.996 117.692 116.225 117.634 116.425 117.518C116.625 117.395 116.767 117.218 116.851 116.985V116.452H115.816C115.197 116.452 114.887 116.656 114.887 117.063C114.887 117.256 114.961 117.411 115.11 117.527C115.264 117.637 115.474 117.692 115.738 117.692Z" fill="#1A1A1A"/>
<path d="M125.083 111.446V118.631H123.641V118.031C123.267 118.483 122.726 118.709 122.016 118.709C121.526 118.709 121.081 118.599 120.682 118.38C120.288 118.16 119.979 117.847 119.753 117.44C119.527 117.034 119.414 116.562 119.414 116.026C119.414 115.491 119.527 115.019 119.753 114.612C119.979 114.206 120.288 113.893 120.682 113.673C121.081 113.454 121.526 113.344 122.016 113.344C122.681 113.344 123.2 113.554 123.574 113.973V111.446H125.083ZM122.278 117.469C122.658 117.469 122.974 117.34 123.226 117.082C123.477 116.817 123.603 116.465 123.603 116.026C123.603 115.587 123.477 115.239 123.226 114.98C122.974 114.716 122.658 114.583 122.278 114.583C121.891 114.583 121.571 114.716 121.32 114.98C121.069 115.239 120.943 115.587 120.943 116.026C120.943 116.465 121.069 116.817 121.32 117.082C121.571 117.34 121.891 117.469 122.278 117.469Z" fill="#1A1A1A"/>
<path d="M131.78 111.446V118.631H130.339V118.031C129.965 118.483 129.423 118.709 128.714 118.709C128.224 118.709 127.779 118.599 127.379 118.38C126.985 118.16 126.676 117.847 126.45 117.44C126.225 117.034 126.112 116.562 126.112 116.026C126.112 115.491 126.225 115.019 126.45 114.612C126.676 114.206 126.985 113.893 127.379 113.673C127.779 113.454 128.224 113.344 128.714 113.344C129.378 113.344 129.897 113.554 130.271 113.973V111.446H131.78ZM128.975 117.469C129.355 117.469 129.671 117.34 129.923 117.082C130.174 116.817 130.3 116.465 130.3 116.026C130.3 115.587 130.174 115.239 129.923 114.98C129.671 114.716 129.355 114.583 128.975 114.583C128.588 114.583 128.269 114.716 128.017 114.98C127.766 115.239 127.64 115.587 127.64 116.026C127.64 116.465 127.766 116.817 128.017 117.082C128.269 117.34 128.588 117.469 128.975 117.469Z" fill="#1A1A1A"/>
<path d="M134.618 114.109C134.798 113.857 135.04 113.667 135.343 113.538C135.653 113.408 136.007 113.344 136.407 113.344V114.738C136.24 114.725 136.127 114.719 136.069 114.719C135.637 114.719 135.298 114.842 135.053 115.087C134.808 115.326 134.685 115.687 134.685 116.172V118.631H133.177V113.421H134.618V114.109Z" fill="#1A1A1A"/>
<path d="M142.355 116.046C142.355 116.065 142.345 116.201 142.326 116.452H138.389C138.46 116.775 138.627 117.03 138.892 117.218C139.156 117.405 139.485 117.498 139.878 117.498C140.149 117.498 140.388 117.46 140.594 117.382C140.807 117.298 141.004 117.169 141.184 116.995L141.987 117.866C141.497 118.428 140.781 118.709 139.84 118.709C139.253 118.709 138.734 118.596 138.282 118.37C137.831 118.138 137.483 117.818 137.238 117.411C136.993 117.004 136.87 116.543 136.87 116.026C136.87 115.516 136.99 115.058 137.228 114.651C137.473 114.238 137.805 113.918 138.224 113.692C138.65 113.46 139.124 113.344 139.646 113.344C140.156 113.344 140.617 113.454 141.03 113.673C141.442 113.893 141.765 114.209 141.997 114.622C142.235 115.029 142.355 115.503 142.355 116.046ZM139.656 114.487C139.314 114.487 139.027 114.583 138.795 114.777C138.563 114.971 138.421 115.236 138.37 115.571H140.933C140.881 115.242 140.739 114.98 140.507 114.787C140.275 114.587 139.991 114.487 139.656 114.487Z" fill="#1A1A1A"/>
<path d="M145.11 118.709C144.678 118.709 144.256 118.657 143.843 118.554C143.43 118.444 143.101 118.309 142.856 118.147L143.359 117.063C143.591 117.211 143.872 117.334 144.201 117.431C144.53 117.521 144.852 117.566 145.168 117.566C145.807 117.566 146.126 117.408 146.126 117.092C146.126 116.943 146.039 116.837 145.865 116.772C145.69 116.708 145.423 116.653 145.062 116.607C144.636 116.543 144.285 116.469 144.007 116.385C143.73 116.301 143.488 116.152 143.282 115.939C143.082 115.726 142.982 115.423 142.982 115.029C142.982 114.7 143.076 114.409 143.263 114.157C143.456 113.899 143.733 113.699 144.094 113.557C144.462 113.415 144.894 113.344 145.391 113.344C145.758 113.344 146.122 113.386 146.484 113.47C146.851 113.547 147.154 113.657 147.393 113.799L146.89 114.874C146.432 114.616 145.932 114.487 145.391 114.487C145.068 114.487 144.826 114.532 144.665 114.622C144.504 114.713 144.423 114.829 144.423 114.971C144.423 115.132 144.51 115.245 144.684 115.31C144.859 115.374 145.136 115.436 145.516 115.494C145.942 115.565 146.29 115.642 146.561 115.726C146.832 115.804 147.067 115.949 147.267 116.162C147.467 116.375 147.567 116.672 147.567 117.053C147.567 117.376 147.47 117.663 147.277 117.915C147.083 118.167 146.8 118.364 146.426 118.506C146.058 118.641 145.62 118.709 145.11 118.709Z" fill="#1A1A1A"/>
<path d="M150.249 118.709C149.817 118.709 149.394 118.657 148.982 118.554C148.569 118.444 148.24 118.309 147.995 118.147L148.498 117.063C148.73 117.211 149.011 117.334 149.339 117.431C149.668 117.521 149.991 117.566 150.307 117.566C150.945 117.566 151.264 117.408 151.264 117.092C151.264 116.943 151.177 116.837 151.003 116.772C150.829 116.708 150.561 116.653 150.2 116.607C149.775 116.543 149.423 116.469 149.146 116.385C148.869 116.301 148.627 116.152 148.421 115.939C148.221 115.726 148.121 115.423 148.121 115.029C148.121 114.7 148.214 114.409 148.401 114.157C148.595 113.899 148.872 113.699 149.233 113.557C149.601 113.415 150.033 113.344 150.529 113.344C150.897 113.344 151.261 113.386 151.622 113.47C151.99 113.547 152.293 113.657 152.531 113.799L152.028 114.874C151.571 114.616 151.071 114.487 150.529 114.487C150.207 114.487 149.965 114.532 149.804 114.622C149.643 114.713 149.562 114.829 149.562 114.971C149.562 115.132 149.649 115.245 149.823 115.31C149.997 115.374 150.275 115.436 150.655 115.494C151.081 115.565 151.429 115.642 151.7 115.726C151.97 115.804 152.206 115.949 152.406 116.162C152.606 116.375 152.706 116.672 152.706 117.053C152.706 117.376 152.609 117.663 152.415 117.915C152.222 118.167 151.938 118.364 151.564 118.506C151.197 118.641 150.758 118.709 150.249 118.709Z" fill="#1A1A1A"/>
</g>
<defs>
<clipPath id="clip0">
<rect width="266" height="161" fill="white"/>
</clipPath>
</defs>
</svg>
