<svg width="289" height="181" viewBox="0 0 289 181" fill="none" xmlns="http://www.w3.org/2000/svg">
<g opacity="0.1">
<g opacity="0.1">
<path opacity="0.1" d="M181.543 93.3958H230.418C238.994 93.3958 245.976 86.3816 245.976 77.7663C245.976 69.151 238.994 62.1367 230.418 62.1367H181.543V93.3958Z" fill="#7C8EA0"/>
</g>
<g opacity="0.1">
<path opacity="0.1" d="M216.985 44.7538V45.2112C216.985 47.8034 214.936 49.862 212.355 49.862H183.896V40.103H212.355C214.86 40.103 216.985 42.1616 216.985 44.7538Z" fill="#7C8EA0"/>
</g>
<g opacity="0.1">
<path opacity="0.1" d="M224.65 63.0519H172.815V45.8212C176.838 45.8212 180.481 40.0269 183.82 40.0269L203.78 42.3903L209.623 49.862H203.552C201.503 49.862 199.833 51.5394 199.833 53.5979C199.833 54.6653 200.213 55.5802 200.896 56.2664C201.579 56.9525 202.489 57.41 203.552 57.41H217.44C217.668 57.41 217.896 57.41 218.123 57.3337L224.65 63.0519Z" fill="#7C8EA0"/>
</g>
</g>
<path d="M171.98 65.4915C180.572 65.4915 187.538 58.494 187.538 49.862C187.538 41.23 180.572 34.2324 171.98 34.2324C163.387 34.2324 156.422 41.23 156.422 49.862C156.422 58.494 163.387 65.4915 171.98 65.4915Z" fill="black"/>
<path d="M171.98 62.7463C179.064 62.7463 184.806 56.9775 184.806 49.8614C184.806 42.7453 179.064 36.9766 171.98 36.9766C164.897 36.9766 159.154 42.7453 159.154 49.8614C159.154 56.9775 164.897 62.7463 171.98 62.7463Z" fill="white"/>
<path d="M173.043 51.3867H171.98V41.6278C171.98 41.3991 172.132 41.2466 172.36 41.2466H172.588C172.815 41.2466 172.967 41.3991 172.967 41.6278V51.3867H173.043Z" fill="black"/>
<path d="M173.042 50.3955V51.4629H164.846C164.542 51.4629 164.391 51.2342 164.391 51.0054V50.9292C164.391 50.6242 164.618 50.4717 164.846 50.4717H173.042V50.3955Z" fill="black"/>
<g opacity="0.1">
<path opacity="0.1" d="M239.296 177.72H133.957C133.274 177.72 132.743 177.186 132.743 176.5V119.852C132.743 119.166 133.274 118.632 133.957 118.632H239.296C255.537 118.632 268.743 131.898 268.743 148.214C268.743 164.53 255.537 177.72 239.296 177.72Z" fill="#7C8EA0"/>
</g>
<path opacity="0.2" d="M38.3333 174.974H131.681C133.503 174.974 134.945 173.526 134.945 171.696V141.657C134.945 139.827 133.503 138.378 131.681 138.378H38.3333C28.3155 138.378 20.1191 146.536 20.1191 156.676C20.195 166.817 28.3155 174.974 38.3333 174.974Z" fill="#B1C8DB"/>
<g opacity="0.5">
<path opacity="0.5" d="M189.283 109.635L188.524 108.796C194.065 104.069 198.163 96.2924 202.944 87.3721C211.216 71.8188 220.627 54.207 241.118 45.2104L241.573 46.2778C221.462 55.1981 212.203 72.5812 203.931 87.9821C199.225 96.9786 194.975 104.832 189.283 109.635Z" fill="#175182"/>
</g>
<g opacity="0.5">
<path opacity="0.5" d="M238.159 46.6597C251.668 38.1207 266.619 36.6721 265.936 45.6686C265.329 53.4453 245.217 44.1438 241.802 46.5073C239.981 47.7271 239.298 46.2785 238.159 46.6597Z" fill="#175182"/>
</g>
<g opacity="0.5">
<path opacity="0.5" d="M235.273 48.8708C244.077 41.2467 241.8 34.3087 238.385 34.0799C234.97 33.8512 232.314 37.9683 233.755 41.0942C234.818 43.5339 235.805 47.2698 235.273 48.8708Z" fill="#175182"/>
</g>
<g opacity="0.5">
<path opacity="0.5" d="M218.957 63.0513C231.024 54.436 241.042 53.2161 239.676 58.858C238.158 65.2623 222.6 59.3917 218.957 63.0513Z" fill="#175182"/>
</g>
<g opacity="0.5">
<path opacity="0.5" d="M207.194 81.0445C209.774 70.5994 209.471 63.9663 203.02 65.8724C199.301 67.016 199.908 72.3529 202.64 73.7253C205.372 75.0976 207.194 76.5462 207.194 81.0445Z" fill="#175182"/>
</g>
<g opacity="0.5">
<path opacity="0.5" d="M209.623 77.4614C214.404 72.1245 218.578 71.2096 219.489 74.183C220.324 76.699 217.288 77.9188 215.315 77.3089C213.494 76.7752 211.444 76.8514 209.623 77.4614Z" fill="#175182"/>
</g>
<g opacity="0.5">
<path opacity="0.5" d="M215.315 67.6266C222.221 55.1992 217.895 51.6921 213.949 52.1495C209.927 52.607 209.244 57.9439 211.748 60.2311C214.252 62.5184 216.226 64.4244 215.315 67.6266Z" fill="#175182"/>
</g>
<g opacity="0.5">
<path opacity="0.5" d="M196.417 99.6478C199.833 91.1087 196.949 87.8303 193.913 88.6689C190.877 89.5076 191.484 92.6335 193.609 94.9208C195.734 97.2843 196.417 99.6478 196.417 99.6478Z" fill="#175182"/>
</g>
<g opacity="0.5">
<path opacity="0.5" d="M192.851 105.138C197.784 101.631 202.109 101.783 202.641 104.299C203.172 106.815 195.507 103.156 192.851 105.138Z" fill="#175182"/>
</g>
<g opacity="0.5">
<path opacity="0.5" d="M209.319 130.222C202.11 130.222 194.52 129.841 186.552 129.155L186.628 128.011C230.645 131.975 264.417 124.733 276.94 108.646L277.85 109.332C267.377 122.826 242.485 130.222 209.319 130.222Z" fill="#175182"/>
</g>
<g opacity="0.5">
<path opacity="0.5" d="M275.118 111.695C287.261 103.308 292.953 91.7957 284.832 89.8134C276.636 87.7548 280.81 104.528 275.118 111.695Z" fill="#175182"/>
</g>
<g opacity="0.5">
<path opacity="0.5" d="M267.377 117.642C274.663 117.565 279.52 110.322 284.073 114.363C288.627 118.404 278.23 125.647 267.377 117.642Z" fill="#175182"/>
</g>
<g opacity="0.5">
<path opacity="0.5" d="M250.908 124.657C267.377 117.719 265.328 105.825 259.029 106.359C250.908 107.045 256.6 121.683 250.908 124.657Z" fill="#175182"/>
</g>
<g opacity="0.5">
<path opacity="0.5" d="M242.938 126.562C247.871 130.297 259.407 125.952 263.657 131.746C267.907 137.54 247.644 144.478 242.938 126.562Z" fill="#175182"/>
</g>
<g opacity="0.5">
<path opacity="0.5" d="M194.976 129.612C201.882 124.275 201.351 114.821 207.726 116.803C214.1 118.709 208.484 126.791 194.976 129.612Z" fill="#175182"/>
</g>
<g opacity="0.5">
<path opacity="0.5" d="M186.552 128.239C192.395 132.737 191.864 140.666 197.253 139.065C202.641 137.388 197.936 130.679 186.552 128.239Z" fill="#175182"/>
</g>
<g opacity="0.5">
<path opacity="0.5" d="M65.8059 115.658C60.9488 111.846 57.5336 105.213 53.9667 98.1991C48.806 88.1351 43.4176 77.69 33.248 75.5552L33.4757 74.4116C44.1766 76.6989 49.6408 87.3727 54.9533 97.6654C58.5202 104.527 61.8595 111.008 66.489 114.744L65.8059 115.658Z" fill="#175182"/>
</g>
<g opacity="0.5">
<path opacity="0.5" d="M34.4628 74.6402C17.3111 69.9132 10.7084 76.0888 11.695 81.0445C12.6816 86.0003 21.7887 87.6776 26.1905 82.5694C30.4405 77.5374 34.4628 74.6402 34.4628 74.6402Z" fill="#175182"/>
</g>
<g opacity="0.5">
<path opacity="0.5" d="M38.7132 77.08C33.4008 72.658 30.6686 64.6526 36.3606 63.204C42.0525 61.8317 39.0927 76.6988 41.5213 79.0623L38.7132 77.08Z" fill="#175182"/>
</g>
<g opacity="0.5">
<path opacity="0.5" d="M50.8555 91.1852C48.1992 81.045 50.7796 76.7755 55.3331 78.0716C59.8867 79.3677 49.9448 86.6107 50.8555 91.1852Z" fill="#175182"/>
</g>
<g opacity="0.5">
<path opacity="0.5" d="M47.9721 86.4574C38.6373 82.1116 28.4677 83.4077 29.6061 88.4397C30.5168 92.633 37.423 89.5071 39.9275 87.6773C42.7355 85.6187 47.9721 86.4574 47.9721 86.4574Z" fill="#175182"/>
</g>
<g opacity="0.5">
<path opacity="0.5" d="M58.6732 105.823C57.1554 96.6741 59.508 95.3017 61.7848 95.9879C63.1509 96.3691 63.2268 98.9613 61.4053 100.867C59.6598 102.621 59.1286 102.545 58.6732 105.823Z" fill="#175182"/>
</g>
<g opacity="0.5">
<path opacity="0.5" d="M56.3203 101.478C47.8962 94.1587 42.5078 97.0559 42.5078 99.7244C42.5837 102.393 45.923 102.088 49.7935 101.173C53.664 100.258 56.3203 101.478 56.3203 101.478Z" fill="#175182"/>
</g>
<g opacity="0.5">
<path opacity="0.5" d="M66.565 140.514C56.3954 133.271 45.0115 131.518 34.9937 129.993C28.0116 128.925 21.9402 128.011 17.5385 125.418C6.76172 119.09 6.23047 105.977 6.23047 105.824H7.36886C7.36886 105.977 7.9001 118.48 18.1456 124.503C22.3956 127.019 28.3152 127.858 35.2214 128.925C45.391 130.45 56.8508 132.204 67.3239 139.599L66.565 140.514Z" fill="#175182"/>
</g>
<g opacity="0.5">
<path opacity="0.5" d="M7.36954 110.475C3.11956 98.1234 8.65971 90.8042 14.0481 92.0241C19.4364 93.244 12.3784 102.393 9.94989 105.519C7.52133 108.645 7.36954 110.475 7.36954 110.475Z" fill="#175182"/>
</g>
<g opacity="0.5">
<path opacity="0.5" d="M15.7176 123.512C8.58366 119.853 3.87832 110.932 0.539052 115.736C-2.72433 120.539 9.64615 126.714 15.7176 123.512Z" fill="#175182"/>
</g>
<g opacity="0.5">
<path opacity="0.5" d="M20.1949 126.104C15.2619 117.184 21.485 110.322 24.5207 112.381C27.5564 114.363 17.6904 118.785 20.1949 126.104Z" fill="#175182"/>
</g>
<g opacity="0.5">
<path opacity="0.5" d="M41.2172 130.907C31.3511 125.418 30.3645 116.574 35.7529 116.04C41.1413 115.506 36.4359 127.4 41.2172 130.907Z" fill="#175182"/>
</g>
<g opacity="0.5">
<path opacity="0.5" d="M30.8966 128.772C19.5886 129.23 15.6422 134.262 19.5127 136.549C23.3832 138.836 27.3296 128.239 30.8966 128.772Z" fill="#175182"/>
</g>
<path d="M210.307 93.7776H187.235C185.49 93.7776 184.048 92.329 184.048 90.5754V69.5327C184.048 67.7792 185.49 66.3306 187.235 66.3306H210.307C212.052 66.3306 213.494 67.7792 213.494 69.5327V90.4992C213.494 92.329 212.128 93.7776 210.307 93.7776ZM187.235 67.1692C185.945 67.1692 184.807 68.2366 184.807 69.609V90.5754C184.807 91.8716 185.869 93.0152 187.235 93.0152H210.307C211.597 93.0152 212.735 91.9478 212.735 90.5754V69.5327C212.735 68.2366 211.673 67.093 210.307 67.093H187.235V67.1692Z" fill="#2E7AA7"/>
<path d="M208.107 91.4144H189.361C187.919 91.4144 186.705 90.1945 186.705 88.7459V71.3628C186.705 69.9142 187.919 68.6943 189.361 68.6943H208.107C209.549 68.6943 210.763 69.9142 210.763 71.3628V88.8222C210.763 90.1945 209.625 91.4144 208.107 91.4144ZM189.437 69.3805C188.375 69.3805 187.464 70.2954 187.464 71.3628V88.8222C187.464 89.8895 188.375 90.8044 189.437 90.8044H208.183C209.245 90.8044 210.156 89.8895 210.156 88.8222V71.3628C210.156 70.2954 209.245 69.3805 208.183 69.3805H189.437Z" fill="#2E7AA7"/>
<path d="M72.0293 144.402H48.958C47.2125 144.402 45.7705 142.953 45.7705 141.199V120.233C45.7705 118.479 47.2125 117.031 48.958 117.031H72.0293C73.7748 117.031 75.2168 118.479 75.2168 120.233V141.199C75.2168 142.953 73.7748 144.402 72.0293 144.402ZM48.958 117.793C47.6678 117.793 46.5294 118.861 46.5294 120.233V141.199C46.5294 142.496 47.5919 143.639 48.958 143.639H72.0293C73.3195 143.639 74.4579 142.572 74.4579 141.199V120.233C74.4579 118.937 73.3954 117.793 72.0293 117.793H48.958Z" fill="#2E7AA7"/>
<path d="M69.8284 142.038H51.083C49.641 142.038 48.4268 140.818 48.4268 139.369V121.91C48.4268 120.461 49.641 119.241 51.083 119.241H69.8284C71.2704 119.241 72.4847 120.461 72.4847 121.91V139.369C72.4847 140.818 71.2704 142.038 69.8284 142.038ZM51.083 120.004C50.0205 120.004 49.1098 120.919 49.1098 121.986V139.445C49.1098 140.513 50.0205 141.428 51.083 141.428H69.8284C70.8909 141.428 71.8016 140.513 71.8016 139.445V121.986C71.8016 120.919 70.8909 120.004 69.8284 120.004H51.083Z" fill="#2E7AA7"/>
<path d="M182.757 153.628H70.8916C66.7934 153.628 63.4541 150.273 63.4541 146.156V64.4251C63.4541 61.9091 65.5032 59.8506 68.0077 59.8506H185.641C188.145 59.8506 190.195 61.9091 190.195 64.4251V146.156C190.195 150.273 186.855 153.628 182.757 153.628Z" fill="white"/>
<path d="M185.641 59.8506H68.0077C65.5032 59.8506 63.4541 61.9091 63.4541 64.4251V139.142H190.195V64.4251C190.195 61.9091 188.145 59.8506 185.641 59.8506Z" fill="black"/>
<path d="M185.185 134.414H68.5381V68.3126C68.5381 66.254 70.2077 64.5005 72.3327 64.5005H181.39C183.439 64.5005 185.185 66.1778 185.185 68.3126V134.414Z" fill="white"/>
<path d="M127.205 149.052C128.881 149.052 130.24 147.687 130.24 146.002C130.24 144.318 128.881 142.953 127.205 142.953C125.528 142.953 124.169 144.318 124.169 146.002C124.169 147.687 125.528 149.052 127.205 149.052Z" fill="#E7EEF2"/>
<path d="M152.476 174.975H100.489C108.61 171.468 111.038 163.386 111.797 158.202C112.177 155.533 112.101 153.627 112.101 153.627H140.94C140.94 153.627 140.864 155.533 141.244 158.202C141.927 163.386 144.355 171.468 152.476 174.975Z" fill="#096FCA"/>
<g opacity="0.5">
<path opacity="0.5" d="M111.721 158.202C112.1 155.533 112.024 153.627 112.024 153.627H140.863C140.863 153.627 140.788 155.533 141.167 158.202H111.721Z" fill="#637787"/>
</g>
<path d="M111.039 72.7339H76.6602V126.866H111.039V72.7339Z" fill="#E7EEF2"/>
<g opacity="0.3">
<g opacity="0.3">
<path opacity="0.3" d="M90.2444 82.1882H81.6685C80.9096 82.1882 80.2266 81.5783 80.2266 80.7396C80.2266 79.9772 80.8337 79.291 81.6685 79.291H90.2444C91.0033 79.291 91.6863 79.9009 91.6863 80.7396C91.6863 81.502 91.0033 82.1882 90.2444 82.1882Z" fill="#95B0B7"/>
</g>
<g opacity="0.3">
<g opacity="0.3">
<path opacity="0.3" d="M88.575 101.019H81.5929C80.834 101.019 80.3027 100.409 80.3027 99.7231V99.4943C80.3027 98.7319 80.9099 98.1982 81.5929 98.1982H88.575C89.3339 98.1982 89.8652 98.8082 89.8652 99.4943V99.7231C89.8652 100.409 89.2581 101.019 88.575 101.019Z" fill="#95B0B7"/>
</g>
<g opacity="0.3">
<path opacity="0.3" d="M99.5037 101.02H92.5216C91.7627 101.02 91.2314 100.41 91.2314 99.7236V99.4948C91.2314 98.7324 91.8386 98.1987 92.5216 98.1987H99.5037C100.263 98.1987 100.794 98.8087 100.794 99.4948V99.7236C100.794 100.41 100.263 101.02 99.5037 101.02Z" fill="#95B0B7"/>
</g>
</g>
<g opacity="0.3">
<g opacity="0.3">
<path opacity="0.3" d="M94.1908 107.272H81.6685C80.9096 107.272 80.2266 106.662 80.2266 105.824C80.2266 105.061 80.8337 104.375 81.6685 104.375H94.1908C94.9497 104.375 95.6327 104.985 95.6327 105.824C95.6327 106.662 95.0256 107.272 94.1908 107.272Z" fill="#95B0B7"/>
</g>
<g opacity="0.3">
<path opacity="0.3" d="M105.726 107.273H98.7443C97.9854 107.273 97.4541 106.663 97.4541 105.976V105.748C97.4541 104.985 98.0613 104.452 98.7443 104.452H105.726C106.485 104.452 107.017 105.062 107.017 105.748V105.976C107.017 106.739 106.409 107.273 105.726 107.273Z" fill="#95B0B7"/>
</g>
</g>
<g opacity="0.3">
<g opacity="0.3">
<path opacity="0.3" d="M94.1908 113.6H81.6685C80.9096 113.6 80.2266 112.99 80.2266 112.151C80.2266 111.389 80.8337 110.703 81.6685 110.703H94.1908C94.9497 110.703 95.6327 111.313 95.6327 112.151C95.6327 112.914 95.0256 113.6 94.1908 113.6Z" fill="#95B0B7"/>
</g>
<g opacity="0.3">
<path opacity="0.3" d="M104.967 113.6H97.9845C97.2256 113.6 96.6943 112.99 96.6943 112.304V112.075C96.6943 111.312 97.3015 110.779 97.9845 110.779H104.967C105.726 110.779 106.257 111.389 106.257 112.075V112.304C106.257 112.99 105.726 113.6 104.967 113.6Z" fill="#95B0B7"/>
</g>
</g>
<g opacity="0.3">
<g opacity="0.3">
<path opacity="0.3" d="M94.1908 119.851H81.6685C80.9096 119.851 80.2266 119.241 80.2266 118.403C80.2266 117.64 80.8337 116.954 81.6685 116.954H94.1908C94.9497 116.954 95.6327 117.564 95.6327 118.403C95.6327 119.241 95.0256 119.851 94.1908 119.851Z" fill="#95B0B7"/>
</g>
<g opacity="0.3">
<path opacity="0.3" d="M104.967 119.852H97.9845C97.2256 119.852 96.6943 119.242 96.6943 118.556V118.327C96.6943 117.564 97.3015 117.031 97.9845 117.031H104.967C105.726 117.031 106.257 117.641 106.257 118.327V118.556C106.257 119.242 105.726 119.852 104.967 119.852Z" fill="#95B0B7"/>
</g>
</g>
<g opacity="0.3">
<path opacity="0.3" d="M106.03 88.4406H81.7447C80.9858 88.4406 80.3027 87.8307 80.3027 86.9921C80.3027 86.2296 80.9099 85.5435 81.7447 85.5435H106.03C106.789 85.5435 107.472 86.1534 107.472 86.9921C107.396 87.8307 106.789 88.4406 106.03 88.4406Z" fill="#95B0B7"/>
</g>
<g opacity="0.3">
<path opacity="0.3" d="M106.03 94.6916H81.7447C80.9858 94.6916 80.3027 94.0817 80.3027 93.243C80.3027 92.4806 80.9099 91.7944 81.7447 91.7944H106.03C106.789 91.7944 107.472 92.4044 107.472 93.243C107.396 94.0817 106.789 94.6916 106.03 94.6916Z" fill="#95B0B7"/>
</g>
</g>
<path d="M100.565 48.1851C100.185 33.6992 83.2612 29.5822 71.6497 29.8871C59.9622 30.1921 43.3418 35.224 43.7212 49.71C44.0248 64.0434 60.797 68.2367 72.4086 67.9318L78.0246 72.8875C78.9354 73.6499 80.3014 73.1924 80.5291 72.0488L81.5157 66.9406C91.2299 64.7296 100.868 59.2402 100.565 48.1851Z" fill="#096FCA"/>
<path d="M61.3281 52.3018C62.7951 52.3018 63.9843 51.1071 63.9843 49.6333C63.9843 48.1596 62.7951 46.9648 61.3281 46.9648C59.8611 46.9648 58.6719 48.1596 58.6719 49.6333C58.6719 51.1071 59.8611 52.3018 61.3281 52.3018Z" fill="#E1F2F9"/>
<path d="M71.9531 51.9971C73.4201 51.9971 74.6094 50.8024 74.6094 49.3286C74.6094 47.8549 73.4201 46.6602 71.9531 46.6602C70.4861 46.6602 69.2969 47.8549 69.2969 49.3286C69.2969 50.8024 70.4861 51.9971 71.9531 51.9971Z" fill="#E1F2F9"/>
<path d="M82.6543 51.7681C84.1213 51.7681 85.3105 50.5734 85.3105 49.0996C85.3105 47.6259 84.1213 46.4312 82.6543 46.4312C81.1873 46.4312 79.998 47.6259 79.998 49.0996C79.998 50.5734 81.1873 51.7681 82.6543 51.7681Z" fill="#E1F2F9"/>
<path d="M178.735 72.7339H119.463V88.4397H178.735V72.7339Z" fill="#E7EEF2"/>
<path d="M142.99 91.8701H119.463V119.851H142.99V91.8701Z" fill="#E7EEF2"/>
<path d="M178.735 91.8701H146.329V119.851H178.735V91.8701Z" fill="#E7EEF2"/>
<path d="M178.735 124.197H119.463V127.933H178.735V124.197Z" fill="#E7EEF2"/>
<path d="M236.111 163.234H206.209C205.223 163.234 204.388 162.395 204.388 161.404V120.081C204.388 119.09 205.223 118.251 206.209 118.251H236.111C237.097 118.251 237.932 119.09 237.932 120.081V161.404C237.932 162.395 237.097 163.234 236.111 163.234ZM206.133 118.785C205.45 118.785 204.919 119.318 204.919 120.005V161.328C204.919 162.014 205.45 162.547 206.133 162.547H236.035C236.718 162.547 237.249 162.014 237.249 161.328V120.005C237.249 119.318 236.718 118.785 236.035 118.785H206.133Z" fill="#C0D3E3"/>
<path d="M231.783 158.43H201.882C201.047 158.43 200.288 157.744 200.288 156.829V113.6C200.288 112.761 200.971 111.999 201.882 111.999H231.783C232.618 111.999 233.377 112.685 233.377 113.6V156.829C233.301 157.744 232.618 158.43 231.783 158.43Z" fill="#C0D3E3"/>
<path d="M216.833 126.028C219.222 126.028 221.159 124.082 221.159 121.682C221.159 119.282 219.222 117.336 216.833 117.336C214.444 117.336 212.507 119.282 212.507 121.682C212.507 124.082 214.444 126.028 216.833 126.028Z" fill="white"/>
<path d="M209.093 134.719C209.093 131.288 209.776 127.323 216.834 127.323C223.892 127.323 224.575 131.288 224.575 134.719H209.093Z" fill="white"/>
<path d="M220.932 142.647H207.802C206.967 142.647 206.36 141.961 206.36 141.199V141.046C206.36 140.208 207.043 139.598 207.802 139.598H220.932C221.767 139.598 222.374 140.284 222.374 141.046V141.122C222.374 141.961 221.767 142.647 220.932 142.647Z" fill="white"/>
<path d="M216.379 147.603H207.499C206.816 147.603 206.285 147.07 206.285 146.383V145.85C206.285 145.164 206.816 144.63 207.499 144.63H216.379C217.062 144.63 217.593 145.164 217.593 145.85V146.383C217.669 147.07 217.062 147.603 216.379 147.603Z" fill="white"/>
<path d="M225.486 147.603H219.87C219.339 147.603 218.884 147.146 218.884 146.612V145.621C218.884 145.087 219.339 144.63 219.87 144.63H225.486C226.018 144.63 226.473 145.087 226.473 145.621V146.612C226.549 147.146 226.094 147.603 225.486 147.603Z" fill="white"/>
<path d="M216.379 152.711H207.499C206.816 152.711 206.285 152.178 206.285 151.491V150.958C206.285 150.271 206.816 149.738 207.499 149.738H216.379C217.062 149.738 217.593 150.271 217.593 150.958V151.491C217.669 152.178 217.062 152.711 216.379 152.711Z" fill="white"/>
<path d="M225.486 152.711H219.87C219.339 152.711 218.884 152.254 218.884 151.72V150.729C218.884 150.195 219.339 149.738 219.87 149.738H225.486C226.018 149.738 226.473 150.195 226.473 150.729V151.72C226.549 152.254 226.094 152.711 225.486 152.711Z" fill="white"/>
<path d="M225.335 142.648H224.728C224.045 142.648 223.514 142.114 223.514 141.428V140.818C223.514 140.132 224.045 139.598 224.728 139.598H225.335C226.018 139.598 226.549 140.132 226.549 140.818V141.428C226.549 142.114 226.018 142.648 225.335 142.648Z" fill="white"/>
<path d="M52.8295 180.541H201.655C202.869 180.541 203.932 179.55 203.932 178.253V177.262C203.932 176.042 202.945 174.975 201.655 174.975H52.8295C51.6152 174.975 50.5527 175.966 50.5527 177.262V178.253C50.5527 179.473 51.5393 180.541 52.8295 180.541Z" fill="#DFEDF8"/>
<g opacity="0.1">
<path opacity="0.1" d="M120.525 31.7166C129.243 31.7166 136.311 24.6166 136.311 15.8583C136.311 7.1 129.243 0 120.525 0C111.807 0 104.739 7.1 104.739 15.8583C104.739 24.6166 111.807 31.7166 120.525 31.7166Z" fill="#7C8EA0"/>
</g>
<g opacity="0.1">
<path opacity="0.1" d="M146.784 31.8689C150.807 31.8689 154.069 28.592 154.069 24.5497C154.069 20.5074 150.807 17.2305 146.784 17.2305C142.76 17.2305 139.498 20.5074 139.498 24.5497C139.498 28.592 142.76 31.8689 146.784 31.8689Z" fill="#7C8EA0"/>
</g>
<path d="M163.177 157.974C174.997 157.974 184.579 148.348 184.579 136.473C184.579 124.599 174.997 114.973 163.177 114.973C151.357 114.973 141.775 124.599 141.775 136.473C141.775 148.348 151.357 157.974 163.177 157.974Z" fill="#096FCA"/>
<path d="M163.177 153.78C172.691 153.78 180.404 146.031 180.404 136.473C180.404 126.915 172.691 119.166 163.177 119.166C153.662 119.166 145.949 126.915 145.949 136.473C145.949 146.031 153.662 153.78 163.177 153.78Z" fill="#DFF3FF"/>
<path d="M175.894 148.635L173.801 150.738L184.534 161.52L186.626 159.417L175.894 148.635Z" fill="#096FCA"/>
<path d="M201.958 174.67L199.758 176.881C199.454 177.186 198.771 177.11 198.316 176.652L185.566 163.844L184.579 161.557L186.628 159.498L189.209 160.794L201.731 173.374C202.186 173.755 202.262 174.365 201.958 174.67Z" fill="#096FCA"/>
</svg>
